<svg width="1600" height="1200" viewBox="0 0 1600 1200" fill="none" xmlns="http://www.w3.org/2000/svg">
<path d="M1028.68 521.288C1026.47 521.288 1024.38 520.448 1022.85 518.96L1024.46 517.064C1025.63 518.144 1027.19 518.888 1028.73 518.888C1030.67 518.888 1031.66 518.072 1031.66 516.8C1031.66 515.48 1030.6 515.072 1029.04 514.448L1026.9 513.512C1025.22 512.864 1023.52 511.616 1023.52 509.312C1023.52 506.792 1025.78 504.872 1028.97 504.872C1030.91 504.872 1032.71 505.616 1034.01 506.888L1032.57 508.64C1031.51 507.776 1030.43 507.272 1028.97 507.272C1027.34 507.272 1026.33 507.968 1026.33 509.168C1026.33 510.416 1027.6 510.848 1029.02 511.424L1031.08 512.312C1033.07 513.128 1034.49 514.28 1034.49 516.584C1034.49 519.152 1032.35 521.288 1028.68 521.288ZM1044.03 521V507.488H1039.11V505.16H1051.76V507.488H1046.82V521H1044.03ZM1055.52 521L1060.61 505.16H1063.85L1068.93 521H1066.01L1064.78 516.68H1059.57L1058.33 521H1055.52ZM1060.17 514.496H1064.18L1063.63 512.528C1063.15 510.848 1062.67 509.072 1062.21 507.32H1062.12C1061.69 509.072 1061.21 510.848 1060.73 512.528L1060.17 514.496ZM1073.6 521V505.16H1076.41L1080.64 514.136L1082.1 517.496H1082.17C1082.05 515.864 1081.79 513.872 1081.79 512.12V505.16H1084.43V521H1081.6L1077.4 512L1075.93 508.664H1075.86C1075.98 510.344 1076.24 512.24 1076.24 513.992V521H1073.6ZM1090.4 521V505.16H1094.45C1099.08 505.16 1101.87 507.776 1101.87 513.008C1101.87 518.24 1099.08 521 1094.6 521H1090.4ZM1093.18 518.744H1094.28C1097.31 518.744 1099.01 516.896 1099.01 513.008C1099.01 509.12 1097.31 507.392 1094.28 507.392H1093.18V518.744ZM1107.64 521V505.16H1112.25C1115.47 505.16 1117.82 506.144 1117.82 509.048C1117.82 510.536 1116.93 512 1115.08 512.504V512.6C1117.36 512.984 1118.61 514.184 1118.61 516.344C1118.61 519.512 1116.09 521 1112.66 521H1107.64ZM1110.4 511.736H1111.99C1114.19 511.736 1115.11 510.872 1115.11 509.384C1115.11 507.92 1114.1 507.32 1112.06 507.32H1110.4V511.736ZM1110.4 518.84H1112.37C1114.67 518.84 1115.9 517.976 1115.9 516.176C1115.9 514.472 1114.72 513.728 1112.37 513.728H1110.4V518.84ZM1127.98 521V515.48L1122.82 505.16H1125.78L1127.77 509.432C1128.3 510.632 1128.8 511.808 1129.38 513.08H1129.47C1130.02 511.808 1130.58 510.632 1131.13 509.408L1133.05 505.16H1135.93L1130.77 515.48V521H1127.98Z" fill="#171717"/>
<rect x="894" y="548" width="370" height="407" rx="32" fill="#C7C7C7" fill-opacity="0.1"/>
<rect x="894" y="548" width="370" height="407" rx="32" stroke="#C7C7C7" stroke-width="2" stroke-linecap="round" stroke-dasharray="8 16"/>
<path d="M497.769 474.137C498.16 474.527 498.793 474.527 499.184 474.137L505.548 467.773C505.938 467.382 505.938 466.749 505.548 466.358C505.157 465.968 504.524 465.968 504.133 466.358L498.477 472.015L492.82 466.358C492.429 465.968 491.796 465.968 491.406 466.358C491.015 466.749 491.015 467.382 491.406 467.773L497.769 474.137ZM498.477 153.93L497.477 153.93L497.477 473.43L498.477 473.43L499.477 473.43L499.477 153.93L498.477 153.93Z" fill="#8F8F8F"/>
<path d="M1076.77 474.137C1077.16 474.527 1077.79 474.527 1078.18 474.137L1084.55 467.773C1084.94 467.382 1084.94 466.749 1084.55 466.358C1084.16 465.968 1083.52 465.968 1083.13 466.358L1077.48 472.015L1071.82 466.358C1071.43 465.968 1070.8 465.968 1070.41 466.358C1070.01 466.749 1070.01 467.382 1070.41 467.773L1076.77 474.137ZM1077.48 190.965L1076.48 190.965L1076.48 473.43L1077.48 473.43L1078.48 473.43L1078.48 190.965L1077.48 190.965Z" fill="#8F8F8F"/>
<rect x="421.227" y="106.75" width="154.5" height="53.5" rx="26.75" fill="#FCFCFC"/>
<rect x="421.227" y="106.75" width="154.5" height="53.5" rx="26.75" stroke="#C7C7C7" stroke-width="2.5"/>
<path d="M459.553 142.788C456.097 142.788 454.033 140.796 454.033 136.452V126.66H456.793V136.644C456.793 139.26 457.849 140.388 459.553 140.388C461.233 140.388 462.313 139.26 462.313 136.644V126.66H465.001V136.452C465.001 140.796 462.985 142.788 459.553 142.788ZM475.143 142.788C472.935 142.788 470.847 141.948 469.311 140.46L470.919 138.564C472.095 139.644 473.655 140.388 475.191 140.388C477.135 140.388 478.119 139.572 478.119 138.3C478.119 136.98 477.063 136.572 475.503 135.948L473.367 135.012C471.687 134.364 469.983 133.116 469.983 130.812C469.983 128.292 472.239 126.372 475.431 126.372C477.375 126.372 479.175 127.116 480.471 128.388L479.031 130.14C477.975 129.276 476.895 128.772 475.431 128.772C473.799 128.772 472.791 129.468 472.791 130.668C472.791 131.916 474.063 132.348 475.479 132.924L477.543 133.812C479.535 134.628 480.951 135.78 480.951 138.084C480.951 140.652 478.815 142.788 475.143 142.788ZM486.006 142.5V126.66H496.014V128.988H488.766V133.092H494.91V135.42H488.766V140.148H496.254V142.5H486.006ZM501.117 142.5V126.66H506.349C509.589 126.66 512.109 127.812 512.109 131.34C512.109 133.74 510.861 135.204 508.965 135.852L512.733 142.5H509.613L506.205 136.284H503.877V142.5H501.117ZM503.877 134.052H506.061C508.221 134.052 509.373 133.14 509.373 131.34C509.373 129.492 508.221 128.868 506.061 128.868H503.877V134.052ZM532.418 142.5V140.244H536.57V129.66H533.354V127.932C535.058 127.668 536.234 127.236 537.29 126.66H539.306V140.244H543.05V142.5H532.418Z" fill="#171717"/>
<rect x="1000.23" y="106.75" width="154.5" height="53.5" rx="26.75" fill="#FCFCFC"/>
<rect x="1000.23" y="106.75" width="154.5" height="53.5" rx="26.75" stroke="#C7C7C7" stroke-width="2.5"/>
<path d="M1038.55 142.788C1035.1 142.788 1033.03 140.796 1033.03 136.452V126.66H1035.79V136.644C1035.79 139.26 1036.85 140.388 1038.55 140.388C1040.23 140.388 1041.31 139.26 1041.31 136.644V126.66H1044V136.452C1044 140.796 1041.98 142.788 1038.55 142.788ZM1054.14 142.788C1051.94 142.788 1049.85 141.948 1048.31 140.46L1049.92 138.564C1051.1 139.644 1052.66 140.388 1054.19 140.388C1056.14 140.388 1057.12 139.572 1057.12 138.3C1057.12 136.98 1056.06 136.572 1054.5 135.948L1052.37 135.012C1050.69 134.364 1048.98 133.116 1048.98 130.812C1048.98 128.292 1051.24 126.372 1054.43 126.372C1056.38 126.372 1058.18 127.116 1059.47 128.388L1058.03 130.14C1056.98 129.276 1055.9 128.772 1054.43 128.772C1052.8 128.772 1051.79 129.468 1051.79 130.668C1051.79 131.916 1053.06 132.348 1054.48 132.924L1056.54 133.812C1058.54 134.628 1059.95 135.78 1059.95 138.084C1059.95 140.652 1057.82 142.788 1054.14 142.788ZM1065.01 142.5V126.66H1075.01V128.988H1067.77V133.092H1073.91V135.42H1067.77V140.148H1075.25V142.5H1065.01ZM1080.12 142.5V126.66H1085.35C1088.59 126.66 1091.11 127.812 1091.11 131.34C1091.11 133.74 1089.86 135.204 1087.96 135.852L1091.73 142.5H1088.61L1085.2 136.284H1082.88V142.5H1080.12ZM1082.88 134.052H1085.06C1087.22 134.052 1088.37 133.14 1088.37 131.34C1088.37 129.492 1087.22 128.868 1085.06 128.868H1082.88V134.052ZM1110.84 142.5V140.892C1115.62 136.572 1118.5 133.812 1118.5 131.34C1118.5 129.66 1117.51 128.556 1115.59 128.556C1114.25 128.556 1113.15 129.348 1112.21 130.332L1110.7 128.82C1112.19 127.284 1113.7 126.372 1115.95 126.372C1119.07 126.372 1121.14 128.268 1121.14 131.196C1121.14 134.028 1118.38 136.932 1114.8 140.316C1115.71 140.244 1116.77 140.148 1117.61 140.148H1121.95V142.5H1110.84Z" fill="#171717"/>
<path d="M562.769 474.137C563.16 474.527 563.793 474.527 564.184 474.137L570.548 467.773C570.938 467.382 570.938 466.749 570.548 466.358C570.157 465.968 569.524 465.968 569.133 466.358L563.477 472.015L557.82 466.358C557.429 465.968 556.796 465.968 556.406 466.358C556.015 466.749 556.015 467.382 556.406 467.773L562.769 474.137ZM906.477 220.43V219.43H595.477V220.43V221.43H906.477V220.43ZM563.477 252.43H562.477L562.477 473.43H563.477H564.477L564.477 252.43H563.477ZM595.477 220.43V219.43C577.251 219.43 562.477 234.204 562.477 252.43H563.477H564.477C564.477 235.309 578.356 221.43 595.477 221.43V220.43Z" fill="#8F8F8F"/>
<path d="M906.477 220.43L1045.48 220.43C1063.15 220.43 1077.48 206.103 1077.48 188.43L1077.48 161.5" stroke="#8F8F8F" stroke-width="2"/>
<path d="M566 270.5H828C839.322 270.5 848.5 279.678 848.5 291V339C848.5 350.322 839.322 359.5 828 359.5H566C557.44 359.5 550.5 352.56 550.5 344V286L550.505 285.6C550.717 277.224 557.573 270.5 566 270.5Z" fill="#C7C7C7" fill-opacity="0.1"/>
<path d="M566 270.5H828C839.322 270.5 848.5 279.678 848.5 291V339C848.5 350.322 839.322 359.5 828 359.5H566C557.44 359.5 550.5 352.56 550.5 344V286L550.505 285.6C550.717 277.224 557.573 270.5 566 270.5Z" stroke="#C7C7C7"/>
<rect x="551" y="359" width="88" height="24" rx="12" transform="rotate(-90 551 359)" fill="#C7C7C7"/>
<rect x="551" y="359" width="88" height="24" rx="12" transform="rotate(-90 551 359)" stroke="#8F8F8F" stroke-width="2" stroke-linecap="round"/>
<path d="M606.664 309L604.24 293.136H606.232L607.504 303.096C607.576 304.416 607.744 305.712 607.84 307.008H607.912C608.248 305.712 608.608 304.392 608.92 303.096L610.576 297.24H611.992L613.648 303.096C613.936 304.368 614.296 305.712 614.632 307.008H614.728C614.824 305.712 614.968 304.392 615.064 303.096L616.264 293.136H618.16L615.832 309H613.624L611.824 302.352C611.608 301.416 611.416 300.432 611.248 299.496H611.176C610.984 300.432 610.792 301.416 610.552 302.352L608.824 309H606.664ZM621.991 309V293.16H626.887C630.079 293.16 632.383 294.312 632.383 297.6C632.383 300.072 630.991 301.536 628.855 302.088L632.863 309H630.583L626.791 302.304H623.983V309H621.991ZM623.983 300.672H626.599C629.047 300.672 630.391 299.664 630.391 297.6C630.391 295.512 629.047 294.768 626.599 294.768H623.983V300.672ZM637.461 309V307.296H641.373V294.84H637.461V293.16H647.301V294.84H643.389V307.296H647.301V309H637.461ZM656.964 309V294.84H651.78V293.16H664.164V294.84H658.98V309H656.964ZM669.122 309V293.16H678.843V294.84H671.138V299.832H677.642V301.536H671.138V307.296H679.082V309H669.122ZM699.584 309V293.16H703.424C708.176 293.16 710.72 295.992 710.72 301.008C710.72 306.048 708.176 309 703.52 309H699.584ZM701.576 307.368H703.304C706.88 307.368 708.656 305.016 708.656 301.008C708.656 297.024 706.88 294.792 703.304 294.792H701.576V307.368ZM713.902 309L719.206 293.16H721.462L726.766 309H724.654L723.166 304.152H717.454L715.942 309H713.902ZM717.958 302.544H722.662L721.918 300.12C721.366 298.344 720.862 296.64 720.358 294.792H720.262C719.758 296.64 719.254 298.344 718.702 300.12L717.958 302.544ZM734.917 309V294.84H729.733V293.16H742.117V294.84H736.933V309H734.917ZM745.084 309L750.388 293.16H752.644L757.948 309H755.836L754.348 304.152H748.636L747.124 309H745.084ZM749.14 302.544H753.844L753.1 300.12C752.548 298.344 752.044 296.64 751.54 294.792H751.444C750.94 296.64 750.436 298.344 749.884 300.12L749.14 302.544Z" fill="#171717"/>
<path d="M606.4 338V322.16H611.296C614.488 322.16 616.792 323.312 616.792 326.6C616.792 329.072 615.4 330.536 613.264 331.088L617.272 338H614.992L611.2 331.304H608.392V338H606.4ZM608.392 329.672H611.008C613.456 329.672 614.8 328.664 614.8 326.6C614.8 324.512 613.456 323.768 611.008 323.768H608.392V329.672ZM622.351 338V322.16H632.071V323.84H624.367V328.832H630.871V330.536H624.367V336.296H632.311V338H622.351ZM638.397 338V322.16H640.365V336.296H648.165V338H638.397ZM653.052 338V336.296H656.964V323.84H653.052V322.16H662.892V323.84H658.98V336.296H662.892V338H653.052ZM667.13 338L672.434 322.16H674.69L679.994 338H677.882L676.394 333.152H670.682L669.17 338H667.13ZM671.186 331.544H675.89L675.146 329.12C674.594 327.344 674.09 325.64 673.586 323.792H673.49C672.986 325.64 672.482 327.344 671.93 329.12L671.186 331.544ZM683.945 338V322.16H685.985L691.097 332.168L692.681 335.408H692.729C692.657 333.848 692.465 332.048 692.465 330.392V322.16H694.361V338H692.321L687.209 327.992L685.625 324.752H685.577C685.649 326.36 685.841 328.064 685.841 329.696V338H683.945ZM703.736 338V323.84H698.552V322.16H710.936V323.84H705.752V338H703.736ZM735.925 338.288C732.373 338.288 729.877 335.096 729.877 330.008C729.877 324.944 732.373 321.872 735.925 321.872C739.477 321.872 741.973 324.968 741.973 330.008C741.973 335.096 739.477 338.288 735.925 338.288ZM735.925 336.536C738.325 336.536 739.909 333.968 739.909 330.008C739.909 326.072 738.325 323.624 735.925 323.624C733.525 323.624 731.941 326.072 731.941 330.008C731.941 333.968 733.525 336.536 735.925 336.536ZM746.308 338V322.16H748.348L753.46 332.168L755.044 335.408H755.092C755.02 333.848 754.828 332.048 754.828 330.392V322.16H756.724V338H754.684L749.572 327.992L747.988 324.752H747.94C748.012 326.36 748.204 328.064 748.204 329.696V338H746.308ZM781.689 338V323.84H776.505V322.16H788.889V323.84H783.705V338H781.689ZM797.975 338.288C795.335 338.288 793.583 337.232 792.455 336.056L793.463 334.76C794.471 335.768 795.887 336.656 797.855 336.656C799.943 336.656 801.527 335.504 801.527 333.728C801.527 331.808 799.991 330.536 795.959 330.536V329C799.583 329 800.975 327.704 800.975 326.024C800.975 324.464 799.727 323.48 797.855 323.48C796.415 323.48 795.095 324.152 794.087 325.112L793.031 323.864C794.303 322.712 795.959 321.872 797.927 321.872C800.807 321.872 802.991 323.336 802.991 325.88C802.991 327.8 801.623 329.024 799.727 329.648V329.768C801.767 330.2 803.519 331.592 803.519 333.776C803.519 336.584 801.023 338.288 797.975 338.288Z" fill="#707070"/>
<path d="M297.025 272.644H490.025C501.347 272.644 510.525 281.822 510.525 293.144V312.144C510.525 323.466 501.347 332.644 490.025 332.644H297.025C288.465 332.644 281.525 325.705 281.525 317.144V288.144C281.525 279.584 288.465 272.644 297.025 272.644Z" fill="#C7C7C7" fill-opacity="0.1"/>
<path d="M297.025 272.644H490.025C501.347 272.644 510.525 281.822 510.525 293.144V312.144C510.525 323.466 501.347 332.644 490.025 332.644H297.025C288.465 332.644 281.525 325.705 281.525 317.144V288.144C281.525 279.584 288.465 272.644 297.025 272.644Z" stroke="#C7C7C7"/>
<path d="M315.689 311.144L313.265 295.28H315.257L316.529 305.24C316.601 306.56 316.769 307.856 316.865 309.152H316.937C317.273 307.856 317.633 306.536 317.945 305.24L319.601 299.384H321.017L322.673 305.24C322.961 306.512 323.321 307.856 323.657 309.152H323.753C323.849 307.856 323.993 306.536 324.089 305.24L325.289 295.28H327.185L324.857 311.144H322.649L320.849 304.496C320.633 303.56 320.441 302.576 320.273 301.64H320.201C320.009 302.576 319.817 303.56 319.577 304.496L317.849 311.144H315.689ZM331.016 311.144V295.304H335.912C339.104 295.304 341.408 296.456 341.408 299.744C341.408 302.216 340.016 303.68 337.88 304.232L341.888 311.144H339.608L335.816 304.448H333.008V311.144H331.016ZM333.008 302.816H335.624C338.072 302.816 339.416 301.808 339.416 299.744C339.416 297.656 338.072 296.912 335.624 296.912H333.008V302.816ZM346.487 311.144V309.44H350.399V296.984H346.487V295.304H356.327V296.984H352.415V309.44H356.327V311.144H346.487ZM365.989 311.144V296.984H360.805V295.304H373.189V296.984H368.005V311.144H365.989ZM378.148 311.144V295.304H387.868V296.984H380.164V301.976H386.668V303.68H380.164V309.44H388.108V311.144H378.148ZM412.761 311.144V296.984H407.577V295.304H419.961V296.984H414.777V311.144H412.761ZM429.048 311.432C426.408 311.432 424.656 310.376 423.528 309.2L424.536 307.904C425.544 308.912 426.96 309.8 428.928 309.8C431.016 309.8 432.6 308.648 432.6 306.872C432.6 304.952 431.064 303.68 427.032 303.68V302.144C430.656 302.144 432.048 300.848 432.048 299.168C432.048 297.608 430.8 296.624 428.928 296.624C427.488 296.624 426.168 297.296 425.16 298.256L424.104 297.008C425.376 295.856 427.032 295.016 429 295.016C431.88 295.016 434.064 296.48 434.064 299.024C434.064 300.944 432.696 302.168 430.8 302.792V302.912C432.84 303.344 434.592 304.736 434.592 306.92C434.592 309.728 432.096 311.432 429.048 311.432Z" fill="#171717"/>
<rect x="486.025" y="332.144" width="59" height="24" rx="12" transform="rotate(-90 486.025 332.144)" fill="#C7C7C7"/>
<rect x="486.025" y="332.144" width="59" height="24" rx="12" transform="rotate(-90 486.025 332.144)" stroke="#8F8F8F" stroke-width="2" stroke-linecap="round"/>
<path d="M1082 280.5H1256C1260.14 280.5 1263.5 283.858 1263.5 288V328C1263.5 332.142 1260.14 335.5 1256 335.5H1082C1073.44 335.5 1066.5 328.56 1066.5 320V296C1066.5 287.44 1073.44 280.5 1082 280.5Z" fill="#C7C7C7" fill-opacity="0.1"/>
<path d="M1082 280.5H1256C1260.14 280.5 1263.5 283.858 1263.5 288V328C1263.5 332.142 1260.14 335.5 1256 335.5H1082C1073.44 335.5 1066.5 328.56 1066.5 320V296C1066.5 287.44 1073.44 280.5 1082 280.5Z" stroke="#C7C7C7"/>
<rect x="1067" y="335" width="54" height="24" rx="12" transform="rotate(-90 1067 335)" fill="#C7C7C7"/>
<rect x="1067" y="335" width="54" height="24" rx="12" transform="rotate(-90 1067 335)" stroke="#8F8F8F" stroke-width="2" stroke-linecap="round"/>
<path d="M1122.4 317V301.16H1127.3C1130.49 301.16 1132.79 302.312 1132.79 305.6C1132.79 308.072 1131.4 309.536 1129.26 310.088L1133.27 317H1130.99L1127.2 310.304H1124.39V317H1122.4ZM1124.39 308.672H1127.01C1129.46 308.672 1130.8 307.664 1130.8 305.6C1130.8 303.512 1129.46 302.768 1127.01 302.768H1124.39V308.672ZM1138.35 317V301.16H1148.07V302.84H1140.37V307.832H1146.87V309.536H1140.37V315.296H1148.31V317H1138.35ZM1151.95 317L1157.25 301.16H1159.51L1164.81 317H1162.7L1161.21 312.152H1155.5L1153.99 317H1151.95ZM1156.01 310.544H1160.71L1159.97 308.12C1159.41 306.344 1158.91 304.64 1158.41 302.792H1158.31C1157.81 304.64 1157.3 306.344 1156.75 308.12L1156.01 310.544ZM1168.81 317V301.16H1172.65C1177.4 301.16 1179.95 303.992 1179.95 309.008C1179.95 314.048 1177.4 317 1172.75 317H1168.81ZM1170.8 315.368H1172.53C1176.11 315.368 1177.88 313.016 1177.88 309.008C1177.88 305.024 1176.11 302.792 1172.53 302.792H1170.8V315.368ZM1204.15 317V302.84H1198.96V301.16H1211.35V302.84H1206.16V317H1204.15ZM1220.43 317.288C1217.79 317.288 1216.04 316.232 1214.91 315.056L1215.92 313.76C1216.93 314.768 1218.34 315.656 1220.31 315.656C1222.4 315.656 1223.98 314.504 1223.98 312.728C1223.98 310.808 1222.45 309.536 1218.42 309.536V308C1222.04 308 1223.43 306.704 1223.43 305.024C1223.43 303.464 1222.18 302.48 1220.31 302.48C1218.87 302.48 1217.55 303.152 1216.54 304.112L1215.49 302.864C1216.76 301.712 1218.42 300.872 1220.38 300.872C1223.26 300.872 1225.45 302.336 1225.45 304.88C1225.45 306.8 1224.08 308.024 1222.18 308.648V308.768C1224.22 309.2 1225.98 310.592 1225.98 312.776C1225.98 315.584 1223.48 317.288 1220.43 317.288Z" fill="#171717"/>
<path d="M479.123 521V505.16H484.403C487.835 505.16 490.355 506.36 490.355 510.032C490.355 513.536 487.787 515.144 484.403 515.144H481.883V521H479.123ZM481.883 512.936H484.163C486.515 512.936 487.619 511.976 487.619 510.032C487.619 508.04 486.467 507.368 484.163 507.368H481.883V512.936ZM495.842 521V505.16H501.074C504.314 505.16 506.834 506.312 506.834 509.84C506.834 512.24 505.586 513.704 503.69 514.352L507.458 521H504.338L500.93 514.784H498.602V521H495.842ZM498.602 512.552H500.786C502.946 512.552 504.098 511.64 504.098 509.84C504.098 507.992 502.946 507.368 500.786 507.368H498.602V512.552ZM512.632 521V518.648H516.4V507.488H512.632V505.16H522.976V507.488H519.184V518.648H522.976V521H512.632ZM529.087 521V505.16H532.039L534.223 511.352L534.991 513.728H535.087L535.807 511.352L537.991 505.16H540.943V521H538.591V513.872C538.591 512.36 538.807 509.384 538.951 507.896H538.855L537.655 511.76L535.663 516.728H534.319L532.303 511.76L531.103 507.896H531.031C531.151 509.384 531.391 512.36 531.391 513.872V521H529.087ZM545.521 521L550.609 505.16H553.849L558.937 521H556.009L554.785 516.68H549.577L548.329 521H545.521ZM550.177 514.496H554.185L553.633 512.528C553.153 510.848 552.673 509.072 552.217 507.32H552.121C551.689 509.072 551.209 510.848 550.729 512.528L550.177 514.496ZM563.848 521V505.16H569.08C572.32 505.16 574.84 506.312 574.84 509.84C574.84 512.24 573.592 513.704 571.696 514.352L575.464 521H572.344L568.936 514.784H566.608V521H563.848ZM566.608 512.552H568.792C570.952 512.552 572.104 511.64 572.104 509.84C572.104 507.992 570.952 507.368 568.792 507.368H566.608V512.552ZM584.406 521V515.48L579.246 505.16H582.198L584.19 509.432C584.718 510.632 585.222 511.808 585.798 513.08H585.894C586.446 511.808 586.998 510.632 587.55 509.408L589.47 505.16H592.35L587.19 515.48V521H584.406Z" fill="#171717"/>
<rect x="350" y="548" width="370" height="407" rx="32" fill="#C7C7C7" fill-opacity="0.1"/>
<rect x="350" y="548" width="370" height="407" rx="32" stroke="#C7C7C7" stroke-width="2" stroke-linecap="round" stroke-dasharray="8 16"/>
<g>
<path d="M425.5 780.767C425.5 776.201 429.201 772.5 433.767 772.5H636.233C640.799 772.5 644.5 776.201 644.5 780.767V815.5H425.5V780.767Z" fill="#FCFCFC" shape-rendering="crispEdges"/>
<path d="M433.768 773H636.232C640.522 773 644 776.478 644 780.768V815H426V780.768C426 776.478 429.478 773 433.768 773Z" stroke="#C7C7C7" shape-rendering="crispEdges"/>
<path d="M453.354 802V788.488H448.434V786.16H461.082V788.488H456.138V802H453.354ZM465.297 802V799.744H469.449V789.16H466.233V787.432C467.937 787.168 469.113 786.736 470.169 786.16H472.185V799.744H475.929V802H465.297Z" fill="#171717"/>
</g>
<g>
<rect x="425.5" y="814.5" width="219" height="43" fill="#FCFCFC" shape-rendering="crispEdges"/>
<rect x="426" y="815" width="218" height="42" stroke="#C7C7C7" shape-rendering="crispEdges"/>
<path d="M453.354 844V830.488H448.434V828.16H461.082V830.488H456.138V844H453.354ZM464.721 844V842.392C469.497 838.072 472.377 835.312 472.377 832.84C472.377 831.16 471.393 830.056 469.473 830.056C468.129 830.056 467.025 830.848 466.089 831.832L464.577 830.32C466.065 828.784 467.577 827.872 469.833 827.872C472.953 827.872 475.017 829.768 475.017 832.696C475.017 835.528 472.257 838.432 468.681 841.816C469.593 841.744 470.649 841.648 471.489 841.648H475.833V844H464.721Z" fill="#171717"/>
</g>
<g>
<path d="M425.5 856.5H644.5V891.233C644.5 895.799 640.799 899.5 636.233 899.5H433.767C429.201 899.5 425.5 895.799 425.5 891.233V856.5Z" fill="#FFEDD5" shape-rendering="crispEdges"/>
<path d="M644 857V891.232C644 895.522 640.522 899 636.232 899H433.768C429.478 899 426 895.522 426 891.232V857H644Z" stroke="#C7C7C7" shape-rendering="crispEdges"/>
<path d="M453.354 886V872.488H448.434V870.16H461.082V872.488H456.138V886H453.354ZM469.929 886.288C467.313 886.288 465.489 885.304 464.337 884.056L465.657 882.28C466.665 883.264 468.033 884.032 469.713 884.032C471.585 884.032 472.977 883.12 472.977 881.608C472.977 879.928 471.681 878.824 467.889 878.824V876.808C471.201 876.808 472.449 875.728 472.449 874.216C472.449 872.872 471.393 872.056 469.761 872.056C468.441 872.056 467.289 872.656 466.257 873.568L464.841 871.864C466.209 870.664 467.913 869.872 469.881 869.872C472.977 869.872 475.209 871.384 475.209 874.024C475.209 875.824 473.985 877 472.137 877.672V877.792C474.105 878.272 475.737 879.616 475.737 881.728C475.737 884.608 473.073 886.288 469.929 886.288Z" fill="#171717"/>
<path d="M504.23 890.272C500.99 887.584 498.998 883.888 498.998 879.328C498.998 874.744 500.99 871.072 504.23 868.384L505.742 869.68C502.718 872.416 501.35 875.416 501.35 879.328C501.35 883.24 502.718 886.24 505.742 888.976L504.23 890.272ZM512.333 886L510.077 870.136H512.885L513.773 879.352C513.821 880.696 513.917 882.016 513.989 883.336H514.061C514.349 882.016 514.685 880.672 514.973 879.352L516.341 874.216H518.117L519.461 879.352C519.725 880.648 520.085 881.992 520.373 883.336H520.469L520.685 879.352L521.525 870.136H524.141L522.005 886H519.053L517.661 880.144C517.469 879.184 517.277 878.152 517.157 877.216H517.085C516.941 878.152 516.773 879.184 516.557 880.144L515.237 886H512.333ZM526.004 886L531.092 870.16H534.332L539.42 886H536.492L535.268 881.68H530.06L528.812 886H526.004ZM530.66 879.496H534.668L534.116 877.528C533.636 875.848 533.156 874.072 532.7 872.32H532.604C532.172 874.072 531.692 875.848 531.212 877.528L530.66 879.496ZM543.13 886V883.648H546.898V872.488H543.13V870.16H553.474V872.488H549.682V883.648H553.474V886H543.13ZM562.489 886V872.488H557.569V870.16H570.217V872.488H565.273V886H562.489ZM574.311 886V883.648H578.079V872.488H574.311V870.16H584.655V872.488H580.863V883.648H584.655V886H574.311ZM589.662 886V870.16H592.47L596.694 879.136L598.158 882.496H598.23C598.11 880.864 597.846 878.872 597.846 877.12V870.16H600.486V886H597.654L593.454 877L591.99 873.664H591.918C592.038 875.344 592.302 877.24 592.302 878.992V886H589.662ZM611.613 886.288C607.629 886.288 604.629 883.36 604.629 878.128C604.629 872.92 607.653 869.872 611.733 869.872C613.821 869.872 615.237 870.856 616.197 871.84L614.661 873.568C613.941 872.8 613.101 872.272 611.733 872.272C609.237 872.272 607.485 874.456 607.485 878.032C607.485 881.656 608.997 883.888 611.781 883.888C612.621 883.888 613.437 883.624 613.917 883.168V879.712H611.205V877.432H616.413V884.416C615.381 885.424 613.629 886.288 611.613 886.288ZM623.555 890.272L622.019 888.976C625.067 886.24 626.411 883.24 626.411 879.328C626.411 875.416 625.067 872.416 622.019 869.68L623.555 868.384C626.771 871.072 628.787 874.744 628.787 879.328C628.787 883.888 626.771 887.584 623.555 890.272Z" fill="#FD880B"/>
</g>
<g>
<path d="M969.523 780.767C969.523 776.201 973.225 772.5 977.791 772.5H1180.26C1184.82 772.5 1188.52 776.201 1188.52 780.767V815.5H969.523V780.767Z" fill="#FCFCFC" shape-rendering="crispEdges"/>
<path d="M977.791 773H1180.26C1184.55 773 1188.02 776.478 1188.02 780.768V815H970.023V780.768C970.023 776.478 973.501 773 977.791 773Z" stroke="#C7C7C7" shape-rendering="crispEdges"/>
<path d="M997.378 802V788.488H992.458V786.16H1005.11V788.488H1000.16V802H997.378ZM1009.32 802V799.744H1013.47V789.16H1010.26V787.432C1011.96 787.168 1013.14 786.736 1014.19 786.16H1016.21V799.744H1019.95V802H1009.32Z" fill="#171717"/>
</g>
<g>
<rect x="969.523" y="814.5" width="219" height="43" fill="#FCFCFC" shape-rendering="crispEdges"/>
<rect x="970.023" y="815" width="218" height="42" stroke="#C7C7C7" shape-rendering="crispEdges"/>
<path d="M997.378 844V830.488H992.458V828.16H1005.11V830.488H1000.16V844H997.378ZM1008.74 844V842.392C1013.52 838.072 1016.4 835.312 1016.4 832.84C1016.4 831.16 1015.42 830.056 1013.5 830.056C1012.15 830.056 1011.05 830.848 1010.11 831.832L1008.6 830.32C1010.09 828.784 1011.6 827.872 1013.86 827.872C1016.98 827.872 1019.04 829.768 1019.04 832.696C1019.04 835.528 1016.28 838.432 1012.7 841.816C1013.62 841.744 1014.67 841.648 1015.51 841.648H1019.86V844H1008.74Z" fill="#171717"/>
</g>
<g>
<path d="M969.523 856.5H1188.52V891.233C1188.52 895.799 1184.82 899.5 1180.26 899.5H977.791C973.225 899.5 969.523 895.799 969.523 891.233V856.5Z" fill="#CCF4DF" shape-rendering="crispEdges"/>
<path d="M1188.02 857V891.232C1188.02 895.522 1184.55 899 1180.26 899H977.791C973.501 899 970.023 895.522 970.023 891.232V857H1188.02Z" stroke="#C7C7C7" shape-rendering="crispEdges"/>
<path d="M997.378 886V872.488H992.458V870.16H1005.11V872.488H1000.16V886H997.378ZM1013.95 886.288C1011.34 886.288 1009.51 885.304 1008.36 884.056L1009.68 882.28C1010.69 883.264 1012.06 884.032 1013.74 884.032C1015.61 884.032 1017 883.12 1017 881.608C1017 879.928 1015.7 878.824 1011.91 878.824V876.808C1015.22 876.808 1016.47 875.728 1016.47 874.216C1016.47 872.872 1015.42 872.056 1013.78 872.056C1012.46 872.056 1011.31 872.656 1010.28 873.568L1008.86 871.864C1010.23 870.664 1011.94 869.872 1013.9 869.872C1017 869.872 1019.23 871.384 1019.23 874.024C1019.23 875.824 1018.01 877 1016.16 877.672V877.792C1018.13 878.272 1019.76 879.616 1019.76 881.728C1019.76 884.608 1017.1 886.288 1013.95 886.288Z" fill="#171717"/>
<path d="M1048.25 890.272C1045.01 887.584 1043.02 883.888 1043.02 879.328C1043.02 874.744 1045.01 871.072 1048.25 868.384L1049.77 869.68C1046.74 872.416 1045.37 875.416 1045.37 879.328C1045.37 883.24 1046.74 886.24 1049.77 888.976L1048.25 890.272ZM1055.73 886V870.16H1058.54L1062.76 879.136L1064.23 882.496H1064.3C1064.18 880.864 1063.92 878.872 1063.92 877.12V870.16H1066.56V886H1063.72L1059.52 877L1058.06 873.664H1057.99C1058.11 875.344 1058.37 877.24 1058.37 878.992V886H1055.73ZM1072.04 886V870.16H1082.05V872.488H1074.8V876.592H1080.95V878.92H1074.8V883.648H1082.29V886H1072.04ZM1087.54 886L1085.28 870.136H1088.09L1088.98 879.352C1089.03 880.696 1089.12 882.016 1089.19 883.336H1089.27C1089.55 882.016 1089.89 880.672 1090.18 879.352L1091.55 874.216H1093.32L1094.67 879.352C1094.93 880.648 1095.29 881.992 1095.58 883.336H1095.67L1095.89 879.352L1096.73 870.136H1099.35L1097.21 886H1094.26L1092.87 880.144C1092.67 879.184 1092.48 878.152 1092.36 877.216H1092.29C1092.15 878.152 1091.98 879.184 1091.76 880.144L1090.44 886H1087.54ZM1105.22 890.272L1103.68 888.976C1106.73 886.24 1108.07 883.24 1108.07 879.328C1108.07 875.416 1106.73 872.416 1103.68 869.68L1105.22 868.384C1108.43 871.072 1110.45 874.744 1110.45 879.328C1110.45 883.888 1108.43 887.584 1105.22 890.272Z" fill="#20AC6D"/>
</g>
<g>
<rect x="425.5" y="593.5" width="219" height="160" rx="21" fill="#F8F9FA" shape-rendering="crispEdges"/>
<rect x="426.5" y="594.5" width="217" height="158" rx="20" stroke="#C7C7C7" stroke-width="2" shape-rendering="crispEdges"/>
<path fill-rule="evenodd" clip-rule="evenodd" d="M513.435 632.308C514.502 629.402 517.269 627.47 520.365 627.47H532.512V627.488H534.742C545.468 627.488 554.163 636.183 554.163 646.909V657.874C554.163 658.843 553.377 659.629 552.408 659.629C551.438 659.629 550.652 658.843 550.652 657.874V646.909C550.652 638.121 543.529 630.998 534.742 630.998H532.258C532.172 630.998 532.088 630.992 532.006 630.98H520.365C518.741 630.98 517.29 631.993 516.73 633.518L512.794 644.238C512.191 645.882 512.667 647.728 513.99 648.876L516.691 651.216C517.977 652.331 518.716 653.948 518.716 655.65L518.716 659.952C518.716 663.42 521.527 666.232 524.996 666.232C525.875 666.232 526.588 665.519 526.588 664.639L526.588 645.472C526.588 641.389 528.219 637.475 531.119 634.6C531.807 633.917 532.918 633.922 533.601 634.61C534.283 635.299 534.279 636.41 533.59 637.092C531.356 639.308 530.099 642.325 530.099 645.472L530.099 664.639C530.099 667.457 527.814 669.742 524.996 669.742C519.589 669.742 515.205 665.359 515.205 659.952L515.206 655.65C515.206 654.967 514.909 654.317 514.392 653.869L511.691 651.528C509.265 649.426 508.393 646.042 509.499 643.029L513.435 632.308ZM533.876 655.126C534.746 654.699 535.798 655.058 536.225 655.929C538.239 660.034 542.414 662.636 546.988 662.636L559.219 662.636C560.188 662.636 560.974 663.422 560.974 664.391C560.974 665.36 560.188 666.146 559.219 666.146L554.163 666.146L554.163 666.156C554.163 671.819 549.019 675.53 543.39 675.53C538.148 675.53 533.784 671.788 532.816 666.831C532.63 665.879 533.251 664.957 534.202 664.772C535.154 664.586 536.076 665.207 536.261 666.158C536.913 669.499 539.859 672.02 543.39 672.02C547.721 672.02 550.652 669.296 550.652 666.156L550.652 666.146L546.988 666.146C541.075 666.146 535.678 662.783 533.073 657.475C532.646 656.605 533.006 655.553 533.876 655.126Z" fill="#1D4ED8"/>
<path d="M542.013 646.734C542.013 647.718 542.81 648.515 543.793 648.515C544.776 648.515 545.573 647.718 545.573 646.734C545.573 645.751 544.776 644.954 543.793 644.954C542.81 644.954 542.013 645.751 542.013 646.734Z" fill="#1D4ED8"/>
<path d="M527.248 716.788C525.04 716.788 522.952 715.948 521.416 714.46L523.024 712.564C524.2 713.644 525.76 714.388 527.296 714.388C529.24 714.388 530.224 713.572 530.224 712.3C530.224 710.98 529.168 710.572 527.608 709.948L525.472 709.012C523.792 708.364 522.088 707.116 522.088 704.812C522.088 702.292 524.344 700.372 527.536 700.372C529.48 700.372 531.28 701.116 532.576 702.388L531.136 704.14C530.08 703.276 529 702.772 527.536 702.772C525.904 702.772 524.896 703.468 524.896 704.668C524.896 705.916 526.168 706.348 527.584 706.924L529.648 707.812C531.64 708.628 533.056 709.78 533.056 712.084C533.056 714.652 530.92 716.788 527.248 716.788ZM537.751 716.5V714.244H541.903V703.66H538.687V701.932C540.391 701.668 541.567 701.236 542.623 700.66H544.639V714.244H548.383V716.5H537.751Z" fill="#171717"/>
</g>
<g>
<rect x="969.477" y="593.5" width="219" height="160" rx="21" fill="#F8F9FA" shape-rendering="crispEdges"/>
<rect x="970.477" y="594.5" width="217" height="158" rx="20" stroke="#C7C7C7" stroke-width="2" shape-rendering="crispEdges"/>
<path fill-rule="evenodd" clip-rule="evenodd" d="M1057.41 632.308C1058.48 629.402 1061.25 627.47 1064.34 627.47H1076.49V627.488H1078.72C1089.44 627.488 1098.14 636.183 1098.14 646.909V657.874C1098.14 658.843 1097.35 659.629 1096.38 659.629C1095.41 659.629 1094.63 658.843 1094.63 657.874V646.909C1094.63 638.121 1087.51 630.998 1078.72 630.998H1076.23C1076.15 630.998 1076.06 630.992 1075.98 630.98H1064.34C1062.72 630.98 1061.27 631.993 1060.71 633.518L1056.77 644.238C1056.17 645.882 1056.64 647.728 1057.97 648.876L1060.67 651.216C1061.95 652.331 1062.69 653.948 1062.69 655.65L1062.69 659.952C1062.69 663.42 1065.5 666.232 1068.97 666.232C1069.85 666.232 1070.56 665.519 1070.56 664.639L1070.56 645.472C1070.56 641.389 1072.2 637.475 1075.1 634.6C1075.78 633.917 1076.89 633.922 1077.58 634.61C1078.26 635.299 1078.26 636.41 1077.57 637.092C1075.33 639.308 1074.08 642.325 1074.08 645.472L1074.08 664.639C1074.08 667.457 1071.79 669.742 1068.97 669.742C1063.57 669.742 1059.18 665.359 1059.18 659.952L1059.18 655.65C1059.18 654.967 1058.89 654.317 1058.37 653.869L1055.67 651.528C1053.24 649.426 1052.37 646.042 1053.48 643.029L1057.41 632.308ZM1077.85 655.126C1078.72 654.699 1079.77 655.058 1080.2 655.929C1082.22 660.034 1086.39 662.636 1090.96 662.636L1103.2 662.636C1104.16 662.636 1104.95 663.422 1104.95 664.391C1104.95 665.36 1104.16 666.146 1103.2 666.146L1098.14 666.146L1098.14 666.156C1098.14 671.819 1093 675.53 1087.37 675.53C1082.12 675.53 1077.76 671.788 1076.79 666.831C1076.61 665.879 1077.23 664.957 1078.18 664.772C1079.13 664.586 1080.05 665.207 1080.24 666.158C1080.89 669.499 1083.84 672.02 1087.37 672.02C1091.7 672.02 1094.63 669.296 1094.63 666.156L1094.63 666.146L1090.96 666.146C1085.05 666.146 1079.65 662.783 1077.05 657.475C1076.62 656.605 1076.98 655.553 1077.85 655.126Z" fill="#1D4ED8"/>
<path d="M1085.99 646.734C1085.99 647.718 1086.79 648.515 1087.77 648.515C1088.75 648.515 1089.55 647.718 1089.55 646.734C1089.55 645.751 1088.75 644.954 1087.77 644.954C1086.79 644.954 1085.99 645.751 1085.99 646.734Z" fill="#1D4ED8"/>
<path d="M1071.22 716.788C1069.02 716.788 1066.93 715.948 1065.39 714.46L1067 712.564C1068.18 713.644 1069.74 714.388 1071.27 714.388C1073.22 714.388 1074.2 713.572 1074.2 712.3C1074.2 710.98 1073.14 710.572 1071.58 709.948L1069.45 709.012C1067.77 708.364 1066.06 707.116 1066.06 704.812C1066.06 702.292 1068.32 700.372 1071.51 700.372C1073.46 700.372 1075.26 701.116 1076.55 702.388L1075.11 704.14C1074.06 703.276 1072.98 702.772 1071.51 702.772C1069.88 702.772 1068.87 703.468 1068.87 704.668C1068.87 705.916 1070.14 706.348 1071.56 706.924L1073.62 707.812C1075.62 708.628 1077.03 709.78 1077.03 712.084C1077.03 714.652 1074.9 716.788 1071.22 716.788ZM1081.15 716.5V714.892C1085.93 710.572 1088.81 707.812 1088.81 705.34C1088.81 703.66 1087.82 702.556 1085.9 702.556C1084.56 702.556 1083.46 703.348 1082.52 704.332L1081.01 702.82C1082.5 701.284 1084.01 700.372 1086.26 700.372C1089.38 700.372 1091.45 702.268 1091.45 705.196C1091.45 708.028 1088.69 710.932 1085.11 714.316C1086.02 714.244 1087.08 714.148 1087.92 714.148H1092.26V716.5H1081.15Z" fill="#171717"/>
</g>
<path d="M537.207 908.793C536.817 908.402 536.183 908.402 535.793 908.793L529.429 915.157C529.038 915.547 529.038 916.181 529.429 916.571C529.819 916.962 530.453 916.962 530.843 916.571L536.5 910.914L542.157 916.571C542.547 916.962 543.181 916.962 543.571 916.571C543.962 916.181 543.962 915.547 543.571 915.157L537.207 908.793ZM536.5 1034.5L537.5 1034.5L536.5 1034.5ZM884.954 1066.5L884.954 1065.5L880.998 1065.5L880.998 1066.5L880.998 1067.5L884.954 1067.5L884.954 1066.5ZM873.087 1066.5L873.087 1065.5L865.175 1065.5L865.175 1066.5L865.175 1067.5L873.087 1067.5L873.087 1066.5ZM857.264 1066.5L857.264 1065.5L849.353 1065.5L849.353 1066.5L849.353 1067.5L857.264 1067.5L857.264 1066.5ZM841.441 1066.5L841.441 1065.5L833.53 1065.5L833.53 1066.5L833.53 1067.5L841.441 1067.5L841.441 1066.5ZM825.619 1066.5L825.619 1065.5L817.707 1065.5L817.707 1066.5L817.707 1067.5L825.619 1067.5L825.619 1066.5ZM809.796 1066.5L809.796 1065.5L801.885 1065.5L801.885 1066.5L801.885 1067.5L809.796 1067.5L809.796 1066.5ZM793.973 1066.5L793.973 1065.5L786.062 1065.5L786.062 1066.5L786.062 1067.5L793.973 1067.5L793.973 1066.5ZM778.151 1066.5L778.151 1065.5L770.239 1065.5L770.239 1066.5L770.239 1067.5L778.151 1067.5L778.151 1066.5ZM762.328 1066.5L762.328 1065.5L754.417 1065.5L754.417 1066.5L754.417 1067.5L762.328 1067.5L762.328 1066.5ZM746.505 1066.5L746.505 1065.5L738.594 1065.5L738.594 1066.5L738.594 1067.5L746.505 1067.5L746.505 1066.5ZM730.682 1066.5L730.682 1065.5L722.771 1065.5L722.771 1066.5L722.771 1067.5L730.682 1067.5L730.682 1066.5ZM714.86 1066.5L714.86 1065.5L706.948 1065.5L706.948 1066.5L706.948 1067.5L714.86 1067.5L714.86 1066.5ZM699.037 1066.5L699.037 1065.5L691.126 1065.5L691.126 1066.5L691.126 1067.5L699.037 1067.5L699.037 1066.5ZM683.214 1066.5L683.214 1065.5L675.303 1065.5L675.303 1066.5L675.303 1067.5L683.214 1067.5L683.214 1066.5ZM667.392 1066.5L667.392 1065.5L659.48 1065.5L659.48 1066.5L659.48 1067.5L667.392 1067.5L667.392 1066.5ZM651.569 1066.5L651.569 1065.5L643.658 1065.5L643.658 1066.5L643.658 1067.5L651.569 1067.5L651.569 1066.5ZM635.746 1066.5L635.746 1065.5L627.835 1065.5L627.835 1066.5L627.835 1067.5L635.746 1067.5L635.746 1066.5ZM619.924 1066.5L619.924 1065.5L612.012 1065.5L612.012 1066.5L612.012 1067.5L619.924 1067.5L619.924 1066.5ZM604.101 1066.5L604.101 1065.5L596.19 1065.5L596.19 1066.5L596.19 1067.5L604.101 1067.5L604.101 1066.5ZM588.278 1066.5L588.278 1065.5L580.367 1065.5L580.367 1066.5L580.367 1067.5L588.278 1067.5L588.278 1066.5ZM572.456 1066.5L572.456 1065.5L568.5 1065.5L568.5 1066.5L568.5 1067.5L572.456 1067.5L572.456 1066.5ZM568.5 1066.5L568.5 1065.5C567.127 1065.5 565.775 1065.41 564.45 1065.24L564.321 1066.23L564.191 1067.22C565.602 1067.41 567.04 1067.5 568.5 1067.5L568.5 1066.5ZM556.251 1064.07L556.634 1063.15C554.114 1062.1 551.762 1060.74 549.628 1059.1L549.019 1059.89L548.41 1060.68C550.68 1062.43 553.184 1063.88 555.868 1065L556.251 1064.07ZM543.111 1053.98L543.904 1053.37C542.265 1051.24 540.897 1048.89 539.852 1046.37L538.928 1046.75L538.004 1047.13C539.117 1049.82 540.574 1052.32 542.318 1054.59L543.111 1053.98ZM536.77 1038.68L537.762 1038.55C537.589 1037.23 537.5 1035.87 537.5 1034.5L536.5 1034.5L535.5 1034.5C535.5 1035.96 535.595 1037.4 535.779 1038.81L536.77 1038.68ZM536.5 1034.5L537.5 1034.5L537.5 1030.59L536.5 1030.59L535.5 1030.59L535.5 1034.5L536.5 1034.5ZM536.5 1022.78L537.5 1022.78L537.5 1014.97L536.5 1014.97L535.5 1014.97L535.5 1022.78L536.5 1022.78ZM536.5 1007.16L537.5 1007.16L537.5 999.344L536.5 999.344L535.5 999.344L535.5 1007.16L536.5 1007.16ZM536.5 991.531L537.5 991.531L537.5 983.719L536.5 983.719L535.5 983.719L535.5 991.531L536.5 991.531ZM536.5 975.906L537.5 975.906L537.5 968.094L536.5 968.094L535.5 968.094L535.5 975.906L536.5 975.906ZM536.5 960.281L537.5 960.281L537.5 952.469L536.5 952.469L535.5 952.469L535.5 960.281L536.5 960.281ZM536.5 944.656L537.5 944.656L537.5 936.844L536.5 936.844L535.5 936.844L535.5 944.656L536.5 944.656ZM536.5 929.031L537.5 929.031L537.5 921.219L536.5 921.219L535.5 921.219L535.5 929.031L536.5 929.031ZM536.5 913.406L537.5 913.406L537.5 909.5L536.5 909.5L535.5 909.5L535.5 913.406L536.5 913.406Z" fill="#FD880B"/>
<path d="M884.954 1066.5L1051.5 1066.5C1069.17 1066.5 1083.5 1052.17 1083.5 1034.5L1083.5 909.5" stroke="#8F8F8F" stroke-width="2"/>
<rect x="686.227" y="1039.75" width="232.5" height="53.5" rx="26.75" fill="#FFEDD5"/>
<rect x="686.227" y="1039.75" width="232.5" height="53.5" rx="26.75" stroke="#FD880B" stroke-width="2.5"/>
<path d="M719.128 1075.5V1059.66H723.184C727.816 1059.66 730.6 1062.28 730.6 1067.51C730.6 1072.74 727.816 1075.5 723.328 1075.5H719.128ZM721.912 1073.24H723.016C726.04 1073.24 727.744 1071.4 727.744 1067.51C727.744 1063.62 726.04 1061.89 723.016 1061.89H721.912V1073.24ZM735.439 1075.5V1059.66H745.447V1061.99H738.199V1066.09H744.343V1068.42H738.199V1073.15H745.687V1075.5H735.439ZM751.413 1075.5V1059.66H754.149V1073.15H761.541V1075.5H751.413ZM764.604 1075.5L769.692 1059.66H772.932L778.02 1075.5H775.092L773.868 1071.18H768.66L767.412 1075.5H764.604ZM769.26 1069H773.268L772.716 1067.03C772.236 1065.35 771.756 1063.57 771.3 1061.82H771.204C770.772 1063.57 770.292 1065.35 769.812 1067.03L769.26 1069ZM785.499 1075.5V1069.98L780.339 1059.66H783.291L785.283 1063.93C785.811 1065.13 786.315 1066.31 786.891 1067.58H786.987C787.539 1066.31 788.091 1065.13 788.643 1063.91L790.563 1059.66H793.443L788.283 1069.98V1075.5H785.499ZM797.801 1075.5V1059.66H807.809V1061.99H800.561V1066.09H806.705V1068.42H800.561V1073.15H808.049V1075.5H797.801ZM812.672 1075.5V1059.66H816.728C821.36 1059.66 824.144 1062.28 824.144 1067.51C824.144 1072.74 821.36 1075.5 816.872 1075.5H812.672ZM815.456 1073.24H816.56C819.584 1073.24 821.288 1071.4 821.288 1067.51C821.288 1063.62 819.584 1061.89 816.56 1061.89H815.456V1073.24ZM842.557 1075.5L847.645 1059.66H850.885L855.973 1075.5H853.045L851.821 1071.18H846.613L845.365 1075.5H842.557ZM847.213 1069H851.221L850.669 1067.03C850.189 1065.35 849.709 1063.57 849.253 1061.82H849.157C848.725 1063.57 848.245 1065.35 847.765 1067.03L847.213 1069ZM866.26 1075.79C862.252 1075.79 859.108 1072.86 859.108 1067.63C859.108 1062.44 862.204 1059.37 866.356 1059.37C868.3 1059.37 869.836 1060.31 870.82 1061.34L869.284 1063.07C868.492 1062.28 867.58 1061.77 866.356 1061.77C863.74 1061.77 861.94 1063.96 861.94 1067.53C861.94 1071.16 863.74 1073.39 866.428 1073.39C867.7 1073.39 868.684 1072.79 869.572 1071.8L871.132 1073.48C869.86 1074.97 868.252 1075.79 866.26 1075.79ZM875.226 1075.5V1059.66H878.034V1066.88H878.106L883.722 1059.66H886.794L881.97 1065.83L887.322 1075.5H884.25L880.314 1068.01L878.034 1070.84V1075.5H875.226Z" fill="#171717"/>
<rect x="1248.98" y="254.144" width="93" height="39" rx="15.5" fill="#171717"/>
<rect x="1248.98" y="254.144" width="93" height="39" rx="15.5" stroke="#C7C7C7" stroke-linejoin="round"/>
<path d="M1269.31 279.336C1267.84 279.336 1266.44 278.776 1265.42 277.784L1266.49 276.52C1267.28 277.24 1268.32 277.736 1269.34 277.736C1270.64 277.736 1271.29 277.192 1271.29 276.344C1271.29 275.464 1270.59 275.192 1269.55 274.776L1268.12 274.152C1267 273.72 1265.87 272.888 1265.87 271.352C1265.87 269.672 1267.37 268.392 1269.5 268.392C1270.8 268.392 1272 268.888 1272.86 269.736L1271.9 270.904C1271.2 270.328 1270.48 269.992 1269.5 269.992C1268.41 269.992 1267.74 270.456 1267.74 271.256C1267.74 272.088 1268.59 272.376 1269.53 272.76L1270.91 273.352C1272.24 273.896 1273.18 274.664 1273.18 276.2C1273.18 277.912 1271.76 279.336 1269.31 279.336ZM1278.74 279.144V270.136H1275.46V268.584H1283.89V270.136H1280.6V279.144H1278.74ZM1286.94 279.144V268.584H1293.62V270.136H1288.78V272.872H1292.88V274.424H1288.78V277.576H1293.78V279.144H1286.94ZM1297.07 279.144V268.584H1300.59C1302.87 268.584 1304.55 269.384 1304.55 271.832C1304.55 274.168 1302.84 275.24 1300.59 275.24H1298.91V279.144H1297.07ZM1298.91 273.768H1300.43C1301.99 273.768 1302.73 273.128 1302.73 271.832C1302.73 270.504 1301.96 270.056 1300.43 270.056H1298.91V273.768ZM1317.5 279.144V278.072C1320.69 275.192 1322.61 273.352 1322.61 271.704C1322.61 270.584 1321.95 269.848 1320.67 269.848C1319.77 269.848 1319.04 270.376 1318.41 271.032L1317.41 270.024C1318.4 269 1319.41 268.392 1320.91 268.392C1322.99 268.392 1324.37 269.656 1324.37 271.608C1324.37 273.496 1322.53 275.432 1320.14 277.688C1320.75 277.64 1321.45 277.576 1322.01 277.576H1324.91V279.144H1317.5Z" fill="#FCFCFC"/>
<rect x="826.477" y="254.144" width="93" height="39" rx="15.5" fill="#171717"/>
<rect x="826.477" y="254.144" width="93" height="39" rx="15.5" stroke="#C7C7C7" stroke-linejoin="round"/>
<path d="M846.809 279.336C845.337 279.336 843.945 278.776 842.921 277.784L843.993 276.52C844.777 277.24 845.817 277.736 846.841 277.736C848.137 277.736 848.793 277.192 848.793 276.344C848.793 275.464 848.089 275.192 847.049 274.776L845.625 274.152C844.505 273.72 843.369 272.888 843.369 271.352C843.369 269.672 844.873 268.392 847.001 268.392C848.297 268.392 849.497 268.888 850.361 269.736L849.401 270.904C848.697 270.328 847.977 269.992 847.001 269.992C845.913 269.992 845.241 270.456 845.241 271.256C845.241 272.088 846.089 272.376 847.033 272.76L848.409 273.352C849.737 273.896 850.681 274.664 850.681 276.2C850.681 277.912 849.257 279.336 846.809 279.336ZM856.242 279.144V270.136H852.962V268.584H861.394V270.136H858.098V279.144H856.242ZM864.444 279.144V268.584H871.116V270.136H866.284V272.872H870.38V274.424H866.284V277.576H871.276V279.144H864.444ZM874.566 279.144V268.584H878.086C880.374 268.584 882.054 269.384 882.054 271.832C882.054 274.168 880.342 275.24 878.086 275.24H876.406V279.144H874.566ZM876.406 273.768H877.926C879.494 273.768 880.23 273.128 880.23 271.832C880.23 270.504 879.462 270.056 877.926 270.056H876.406V273.768ZM898.473 279.336C896.729 279.336 895.513 278.68 894.745 277.848L895.625 276.664C896.297 277.32 897.209 277.832 898.329 277.832C899.577 277.832 900.505 277.224 900.505 276.216C900.505 275.096 899.641 274.36 897.113 274.36V273.016C899.321 273.016 900.153 272.296 900.153 271.288C900.153 270.392 899.449 269.848 898.361 269.848C897.481 269.848 896.713 270.248 896.025 270.856L895.081 269.72C895.993 268.92 897.129 268.392 898.441 268.392C900.505 268.392 901.993 269.4 901.993 271.16C901.993 272.36 901.177 273.144 899.945 273.592V273.672C901.257 273.992 902.345 274.888 902.345 276.296C902.345 278.216 900.569 279.336 898.473 279.336Z" fill="#FCFCFC"/>
<rect x="203.5" y="254.144" width="93" height="39" rx="15.5" fill="#171717"/>
<rect x="203.5" y="254.144" width="93" height="39" rx="15.5" stroke="#C7C7C7" stroke-linejoin="round"/>
<path d="M223.832 279.336C222.36 279.336 220.968 278.776 219.944 277.784L221.016 276.52C221.8 277.24 222.84 277.736 223.864 277.736C225.16 277.736 225.816 277.192 225.816 276.344C225.816 275.464 225.112 275.192 224.072 274.776L222.648 274.152C221.528 273.72 220.392 272.888 220.392 271.352C220.392 269.672 221.896 268.392 224.024 268.392C225.32 268.392 226.52 268.888 227.384 269.736L226.424 270.904C225.72 270.328 225 269.992 224.024 269.992C222.936 269.992 222.264 270.456 222.264 271.256C222.264 272.088 223.112 272.376 224.056 272.76L225.432 273.352C226.76 273.896 227.704 274.664 227.704 276.2C227.704 277.912 226.28 279.336 223.832 279.336ZM233.266 279.144V270.136H229.986V268.584H238.418V270.136H235.122V279.144H233.266ZM241.468 279.144V268.584H248.14V270.136H243.308V272.872H247.404V274.424H243.308V277.576H248.3V279.144H241.468ZM251.589 279.144V268.584H255.109C257.397 268.584 259.077 269.384 259.077 271.832C259.077 274.168 257.365 275.24 255.109 275.24H253.429V279.144H251.589ZM253.429 273.768H254.949C256.517 273.768 257.253 273.128 257.253 271.832C257.253 270.504 256.485 270.056 254.949 270.056H253.429V273.768ZM272.409 279.144V277.64H275.177V270.584H273.033V269.432C274.169 269.256 274.953 268.968 275.657 268.584H277.001V277.64H279.497V279.144H272.409Z" fill="#FCFCFC"/>
<defs>
<filter id="filter0_d_1203_1185" x="422.744" y="772.5" width="224.512" height="48.5116" filterUnits="userSpaceOnUse" color-interpolation-filters="sRGB">
<feFlood flood-opacity="0" result="BackgroundImageFix"/>
<feColorMatrix in="SourceAlpha" type="matrix" values="0 0 0 0 0 0 0 0 0 0 0 0 0 0 0 0 0 0 127 0" result="hardAlpha"/>
<feOffset dy="2.75581"/>
<feGaussianBlur stdDeviation="1.37791"/>
<feComposite in2="hardAlpha" operator="out"/>
<feColorMatrix type="matrix" values="0 0 0 0 0 0 0 0 0 0 0 0 0 0 0 0 0 0 0.03 0"/>
<feBlend mode="normal" in2="BackgroundImageFix" result="effect1_dropShadow_1203_1185"/>
<feBlend mode="normal" in="SourceGraphic" in2="effect1_dropShadow_1203_1185" result="shape"/>
</filter>
<filter id="filter1_d_1203_1185" x="422.744" y="814.5" width="224.512" height="48.5116" filterUnits="userSpaceOnUse" color-interpolation-filters="sRGB">
<feFlood flood-opacity="0" result="BackgroundImageFix"/>
<feColorMatrix in="SourceAlpha" type="matrix" values="0 0 0 0 0 0 0 0 0 0 0 0 0 0 0 0 0 0 127 0" result="hardAlpha"/>
<feOffset dy="2.75581"/>
<feGaussianBlur stdDeviation="1.37791"/>
<feComposite in2="hardAlpha" operator="out"/>
<feColorMatrix type="matrix" values="0 0 0 0 0 0 0 0 0 0 0 0 0 0 0 0 0 0 0.03 0"/>
<feBlend mode="normal" in2="BackgroundImageFix" result="effect1_dropShadow_1203_1185"/>
<feBlend mode="normal" in="SourceGraphic" in2="effect1_dropShadow_1203_1185" result="shape"/>
</filter>
<filter id="filter2_d_1203_1185" x="422.744" y="856.5" width="224.512" height="48.5116" filterUnits="userSpaceOnUse" color-interpolation-filters="sRGB">
<feFlood flood-opacity="0" result="BackgroundImageFix"/>
<feColorMatrix in="SourceAlpha" type="matrix" values="0 0 0 0 0 0 0 0 0 0 0 0 0 0 0 0 0 0 127 0" result="hardAlpha"/>
<feOffset dy="2.75581"/>
<feGaussianBlur stdDeviation="1.37791"/>
<feComposite in2="hardAlpha" operator="out"/>
<feColorMatrix type="matrix" values="0 0 0 0 0 0 0 0 0 0 0 0 0 0 0 0 0 0 0.03 0"/>
<feBlend mode="normal" in2="BackgroundImageFix" result="effect1_dropShadow_1203_1185"/>
<feBlend mode="normal" in="SourceGraphic" in2="effect1_dropShadow_1203_1185" result="shape"/>
</filter>
<filter id="filter3_d_1203_1185" x="966.768" y="772.5" width="224.512" height="48.5116" filterUnits="userSpaceOnUse" color-interpolation-filters="sRGB">
<feFlood flood-opacity="0" result="BackgroundImageFix"/>
<feColorMatrix in="SourceAlpha" type="matrix" values="0 0 0 0 0 0 0 0 0 0 0 0 0 0 0 0 0 0 127 0" result="hardAlpha"/>
<feOffset dy="2.75581"/>
<feGaussianBlur stdDeviation="1.37791"/>
<feComposite in2="hardAlpha" operator="out"/>
<feColorMatrix type="matrix" values="0 0 0 0 0 0 0 0 0 0 0 0 0 0 0 0 0 0 0.03 0"/>
<feBlend mode="normal" in2="BackgroundImageFix" result="effect1_dropShadow_1203_1185"/>
<feBlend mode="normal" in="SourceGraphic" in2="effect1_dropShadow_1203_1185" result="shape"/>
</filter>
<filter id="filter4_d_1203_1185" x="966.768" y="814.5" width="224.512" height="48.5116" filterUnits="userSpaceOnUse" color-interpolation-filters="sRGB">
<feFlood flood-opacity="0" result="BackgroundImageFix"/>
<feColorMatrix in="SourceAlpha" type="matrix" values="0 0 0 0 0 0 0 0 0 0 0 0 0 0 0 0 0 0 127 0" result="hardAlpha"/>
<feOffset dy="2.75581"/>
<feGaussianBlur stdDeviation="1.37791"/>
<feComposite in2="hardAlpha" operator="out"/>
<feColorMatrix type="matrix" values="0 0 0 0 0 0 0 0 0 0 0 0 0 0 0 0 0 0 0.03 0"/>
<feBlend mode="normal" in2="BackgroundImageFix" result="effect1_dropShadow_1203_1185"/>
<feBlend mode="normal" in="SourceGraphic" in2="effect1_dropShadow_1203_1185" result="shape"/>
</filter>
<filter id="filter5_d_1203_1185" x="966.768" y="856.5" width="224.512" height="48.5116" filterUnits="userSpaceOnUse" color-interpolation-filters="sRGB">
<feFlood flood-opacity="0" result="BackgroundImageFix"/>
<feColorMatrix in="SourceAlpha" type="matrix" values="0 0 0 0 0 0 0 0 0 0 0 0 0 0 0 0 0 0 127 0" result="hardAlpha"/>
<feOffset dy="2.75581"/>
<feGaussianBlur stdDeviation="1.37791"/>
<feComposite in2="hardAlpha" operator="out"/>
<feColorMatrix type="matrix" values="0 0 0 0 0 0 0 0 0 0 0 0 0 0 0 0 0 0 0.03 0"/>
<feBlend mode="normal" in2="BackgroundImageFix" result="effect1_dropShadow_1203_1185"/>
<feBlend mode="normal" in="SourceGraphic" in2="effect1_dropShadow_1203_1185" result="shape"/>
</filter>
<filter id="filter6_d_1203_1185" x="421.5" y="593.5" width="227" height="168" filterUnits="userSpaceOnUse" color-interpolation-filters="sRGB">
<feFlood flood-opacity="0" result="BackgroundImageFix"/>
<feColorMatrix in="SourceAlpha" type="matrix" values="0 0 0 0 0 0 0 0 0 0 0 0 0 0 0 0 0 0 127 0" result="hardAlpha"/>
<feOffset dy="4"/>
<feGaussianBlur stdDeviation="2"/>
<feComposite in2="hardAlpha" operator="out"/>
<feColorMatrix type="matrix" values="0 0 0 0 0 0 0 0 0 0 0 0 0 0 0 0 0 0 0.03 0"/>
<feBlend mode="normal" in2="BackgroundImageFix" result="effect1_dropShadow_1203_1185"/>
<feBlend mode="normal" in="SourceGraphic" in2="effect1_dropShadow_1203_1185" result="shape"/>
</filter>
<filter id="filter7_d_1203_1185" x="965.477" y="593.5" width="227" height="168" filterUnits="userSpaceOnUse" color-interpolation-filters="sRGB">
<feFlood flood-opacity="0" result="BackgroundImageFix"/>
<feColorMatrix in="SourceAlpha" type="matrix" values="0 0 0 0 0 0 0 0 0 0 0 0 0 0 0 0 0 0 127 0" result="hardAlpha"/>
<feOffset dy="4"/>
<feGaussianBlur stdDeviation="2"/>
<feComposite in2="hardAlpha" operator="out"/>
<feColorMatrix type="matrix" values="0 0 0 0 0 0 0 0 0 0 0 0 0 0 0 0 0 0 0.03 0"/>
<feBlend mode="normal" in2="BackgroundImageFix" result="effect1_dropShadow_1203_1185"/>
<feBlend mode="normal" in="SourceGraphic" in2="effect1_dropShadow_1203_1185" result="shape"/>
</filter>
</defs>
</svg>
