<svg width="1600" height="520" viewBox="0 0 1600 520" fill="none" xmlns="http://www.w3.org/2000/svg">
<path d="M311.507 197.788C309.299 197.788 307.211 196.948 305.675 195.46L307.283 193.564C308.459 194.644 310.019 195.388 311.555 195.388C313.499 195.388 314.483 194.572 314.483 193.3C314.483 191.98 313.427 191.572 311.867 190.948L309.731 190.012C308.051 189.364 306.347 188.116 306.347 185.812C306.347 183.292 308.603 181.372 311.795 181.372C313.739 181.372 315.539 182.116 316.835 183.388L315.395 185.14C314.339 184.276 313.259 183.772 311.795 183.772C310.163 183.772 309.155 184.468 309.155 185.668C309.155 186.916 310.427 187.348 311.843 187.924L313.907 188.812C315.899 189.628 317.315 190.78 317.315 193.084C317.315 195.652 315.179 197.788 311.507 197.788ZM322.01 197.5V195.244H326.162V184.66H322.946V182.932C324.65 182.668 325.826 182.236 326.882 181.66H328.898V195.244H332.642V197.5H322.01Z" fill="#EDEDED"/>
<g>
<path d="M184.25 226.767C184.25 222.201 187.951 218.5 192.517 218.5H445.983C450.549 218.5 454.25 222.201 454.25 226.767V261.5H184.25V226.767Z" fill="#1E1E1E" shape-rendering="crispEdges"/>
<path d="M192.518 219H445.982C450.272 219 453.75 222.478 453.75 226.768V261H184.75V226.768C184.75 222.478 188.228 219 192.518 219Z" stroke="#4D4D4D" shape-rendering="crispEdges"/>
<path d="M212.104 248V234.488H207.184V232.16H219.832V234.488H214.888V248H212.104ZM223.927 248V232.16H229.159C232.399 232.16 234.919 233.312 234.919 236.84C234.919 239.24 233.671 240.704 231.775 241.352L235.543 248H232.423L229.015 241.784H226.687V248H223.927ZM226.687 239.552H228.871C231.031 239.552 232.183 238.64 232.183 236.84C232.183 234.992 231.031 234.368 228.871 234.368H226.687V239.552ZM237.982 248L243.07 232.16H246.31L251.398 248H248.47L247.246 243.68H242.038L240.79 248H237.982ZM242.638 241.496H246.646L246.094 239.528C245.614 237.848 245.134 236.072 244.678 234.32H244.582C244.15 236.072 243.67 237.848 243.19 239.528L242.638 241.496ZM254.868 248V232.16H257.676L261.9 241.136L263.364 244.496H263.436C263.316 242.864 263.052 240.872 263.052 239.12V232.16H265.692V248H262.86L258.66 239L257.196 235.664H257.124C257.244 237.344 257.508 239.24 257.508 240.992V248H254.868ZM275.907 248.288C273.699 248.288 271.611 247.448 270.075 245.96L271.683 244.064C272.859 245.144 274.419 245.888 275.955 245.888C277.899 245.888 278.883 245.072 278.883 243.8C278.883 242.48 277.827 242.072 276.267 241.448L274.131 240.512C272.451 239.864 270.747 238.616 270.747 236.312C270.747 233.792 273.003 231.872 276.195 231.872C278.139 231.872 279.939 232.616 281.235 233.888L279.795 235.64C278.739 234.776 277.659 234.272 276.195 234.272C274.563 234.272 273.555 234.968 273.555 236.168C273.555 237.416 274.827 237.848 276.243 238.424L278.307 239.312C280.299 240.128 281.715 241.28 281.715 243.584C281.715 246.152 279.579 248.288 275.907 248.288ZM284.754 248L289.842 232.16H293.082L298.17 248H295.242L294.018 243.68H288.81L287.562 248H284.754ZM289.41 241.496H293.418L292.866 239.528C292.386 237.848 291.906 236.072 291.45 234.32H291.354C290.922 236.072 290.442 237.848 289.962 239.528L289.41 241.496ZM308.456 248.288C304.448 248.288 301.304 245.36 301.304 240.128C301.304 234.944 304.4 231.872 308.552 231.872C310.496 231.872 312.032 232.808 313.016 233.84L311.48 235.568C310.688 234.776 309.776 234.272 308.552 234.272C305.936 234.272 304.136 236.456 304.136 240.032C304.136 243.656 305.936 245.888 308.624 245.888C309.896 245.888 310.88 245.288 311.768 244.304L313.328 245.984C312.056 247.472 310.448 248.288 308.456 248.288ZM321.239 248V234.488H316.319V232.16H328.967V234.488H324.023V248H321.239ZM333.061 248V245.648H336.829V234.488H333.061V232.16H343.405V234.488H339.613V245.648H343.405V248H333.061ZM353.812 248.288C350.188 248.288 347.644 245.12 347.644 240.008C347.644 234.872 350.188 231.872 353.812 231.872C357.46 231.872 359.98 234.896 359.98 240.008C359.98 245.12 357.46 248.288 353.812 248.288ZM353.812 245.888C355.828 245.888 357.148 243.584 357.148 240.008C357.148 236.432 355.828 234.272 353.812 234.272C351.796 234.272 350.5 236.432 350.5 240.008C350.5 243.584 351.796 245.888 353.812 245.888ZM364.003 248V232.16H366.811L371.035 241.136L372.499 244.496H372.571C372.451 242.864 372.187 240.872 372.187 239.12V232.16H374.827V248H371.995L367.795 239L366.331 235.664H366.259C366.379 237.344 366.643 239.24 366.643 240.992V248H364.003ZM395.544 248V245.744H399.696V235.16H396.48V233.432C398.184 233.168 399.36 232.736 400.416 232.16H402.432V245.744H406.176V248H395.544Z" fill="#EDEDED"/>
</g>
<g>
<rect x="184.25" y="260.5" width="270" height="43" fill="#543112" shape-rendering="crispEdges"/>
<rect x="184.75" y="261" width="269" height="42" stroke="#4D4D4D" shape-rendering="crispEdges"/>
<path d="M212.104 290V276.488H207.184V274.16H219.832V276.488H214.888V290H212.104ZM223.927 290V274.16H229.159C232.399 274.16 234.919 275.312 234.919 278.84C234.919 281.24 233.671 282.704 231.775 283.352L235.543 290H232.423L229.015 283.784H226.687V290H223.927ZM226.687 281.552H228.871C231.031 281.552 232.183 280.64 232.183 278.84C232.183 276.992 231.031 276.368 228.871 276.368H226.687V281.552ZM237.982 290L243.07 274.16H246.31L251.398 290H248.47L247.246 285.68H242.038L240.79 290H237.982ZM242.638 283.496H246.646L246.094 281.528C245.614 279.848 245.134 278.072 244.678 276.32H244.582C244.15 278.072 243.67 279.848 243.19 281.528L242.638 283.496ZM254.868 290V274.16H257.676L261.9 283.136L263.364 286.496H263.436C263.316 284.864 263.052 282.872 263.052 281.12V274.16H265.692V290H262.86L258.66 281L257.196 277.664H257.124C257.244 279.344 257.508 281.24 257.508 282.992V290H254.868ZM275.907 290.288C273.699 290.288 271.611 289.448 270.075 287.96L271.683 286.064C272.859 287.144 274.419 287.888 275.955 287.888C277.899 287.888 278.883 287.072 278.883 285.8C278.883 284.48 277.827 284.072 276.267 283.448L274.131 282.512C272.451 281.864 270.747 280.616 270.747 278.312C270.747 275.792 273.003 273.872 276.195 273.872C278.139 273.872 279.939 274.616 281.235 275.888L279.795 277.64C278.739 276.776 277.659 276.272 276.195 276.272C274.563 276.272 273.555 276.968 273.555 278.168C273.555 279.416 274.827 279.848 276.243 280.424L278.307 281.312C280.299 282.128 281.715 283.28 281.715 285.584C281.715 288.152 279.579 290.288 275.907 290.288ZM284.754 290L289.842 274.16H293.082L298.17 290H295.242L294.018 285.68H288.81L287.562 290H284.754ZM289.41 283.496H293.418L292.866 281.528C292.386 279.848 291.906 278.072 291.45 276.32H291.354C290.922 278.072 290.442 279.848 289.962 281.528L289.41 283.496ZM308.456 290.288C304.448 290.288 301.304 287.36 301.304 282.128C301.304 276.944 304.4 273.872 308.552 273.872C310.496 273.872 312.032 274.808 313.016 275.84L311.48 277.568C310.688 276.776 309.776 276.272 308.552 276.272C305.936 276.272 304.136 278.456 304.136 282.032C304.136 285.656 305.936 287.888 308.624 287.888C309.896 287.888 310.88 287.288 311.768 286.304L313.328 287.984C312.056 289.472 310.448 290.288 308.456 290.288ZM321.239 290V276.488H316.319V274.16H328.967V276.488H324.023V290H321.239ZM333.061 290V287.648H336.829V276.488H333.061V274.16H343.405V276.488H339.613V287.648H343.405V290H333.061ZM353.812 290.288C350.188 290.288 347.644 287.12 347.644 282.008C347.644 276.872 350.188 273.872 353.812 273.872C357.46 273.872 359.98 276.896 359.98 282.008C359.98 287.12 357.46 290.288 353.812 290.288ZM353.812 287.888C355.828 287.888 357.148 285.584 357.148 282.008C357.148 278.432 355.828 276.272 353.812 276.272C351.796 276.272 350.5 278.432 350.5 282.008C350.5 285.584 351.796 287.888 353.812 287.888ZM364.003 290V274.16H366.811L371.035 283.136L372.499 286.496H372.571C372.451 284.864 372.187 282.872 372.187 281.12V274.16H374.827V290H371.995L367.795 281L366.331 277.664H366.259C366.379 279.344 366.643 281.24 366.643 282.992V290H364.003ZM394.968 290V288.392C399.744 284.072 402.624 281.312 402.624 278.84C402.624 277.16 401.64 276.056 399.72 276.056C398.376 276.056 397.272 276.848 396.336 277.832L394.824 276.32C396.312 274.784 397.824 273.872 400.08 273.872C403.2 273.872 405.264 275.768 405.264 278.696C405.264 281.528 402.504 284.432 398.928 287.816C399.84 287.744 400.896 287.648 401.736 287.648H406.08V290H394.968Z" fill="#EDEDED"/>
</g>
<g>
<path d="M184.25 302.5H454.25V337.233C454.25 341.799 450.549 345.5 445.983 345.5H192.517C187.951 345.5 184.25 341.799 184.25 337.233V302.5Z" fill="#543112" shape-rendering="crispEdges"/>
<path d="M453.75 303V337.232C453.75 341.522 450.272 345 445.982 345H192.518C188.228 345 184.75 341.522 184.75 337.232V303H453.75Z" stroke="#4D4D4D" shape-rendering="crispEdges"/>
<path d="M212.104 332V318.488H207.184V316.16H219.832V318.488H214.888V332H212.104ZM223.927 332V316.16H229.159C232.399 316.16 234.919 317.312 234.919 320.84C234.919 323.24 233.671 324.704 231.775 325.352L235.543 332H232.423L229.015 325.784H226.687V332H223.927ZM226.687 323.552H228.871C231.031 323.552 232.183 322.64 232.183 320.84C232.183 318.992 231.031 318.368 228.871 318.368H226.687V323.552ZM237.982 332L243.07 316.16H246.31L251.398 332H248.47L247.246 327.68H242.038L240.79 332H237.982ZM242.638 325.496H246.646L246.094 323.528C245.614 321.848 245.134 320.072 244.678 318.32H244.582C244.15 320.072 243.67 321.848 243.19 323.528L242.638 325.496ZM254.868 332V316.16H257.676L261.9 325.136L263.364 328.496H263.436C263.316 326.864 263.052 324.872 263.052 323.12V316.16H265.692V332H262.86L258.66 323L257.196 319.664H257.124C257.244 321.344 257.508 323.24 257.508 324.992V332H254.868ZM275.907 332.288C273.699 332.288 271.611 331.448 270.075 329.96L271.683 328.064C272.859 329.144 274.419 329.888 275.955 329.888C277.899 329.888 278.883 329.072 278.883 327.8C278.883 326.48 277.827 326.072 276.267 325.448L274.131 324.512C272.451 323.864 270.747 322.616 270.747 320.312C270.747 317.792 273.003 315.872 276.195 315.872C278.139 315.872 279.939 316.616 281.235 317.888L279.795 319.64C278.739 318.776 277.659 318.272 276.195 318.272C274.563 318.272 273.555 318.968 273.555 320.168C273.555 321.416 274.827 321.848 276.243 322.424L278.307 323.312C280.299 324.128 281.715 325.28 281.715 327.584C281.715 330.152 279.579 332.288 275.907 332.288ZM284.754 332L289.842 316.16H293.082L298.17 332H295.242L294.018 327.68H288.81L287.562 332H284.754ZM289.41 325.496H293.418L292.866 323.528C292.386 321.848 291.906 320.072 291.45 318.32H291.354C290.922 320.072 290.442 321.848 289.962 323.528L289.41 325.496ZM308.456 332.288C304.448 332.288 301.304 329.36 301.304 324.128C301.304 318.944 304.4 315.872 308.552 315.872C310.496 315.872 312.032 316.808 313.016 317.84L311.48 319.568C310.688 318.776 309.776 318.272 308.552 318.272C305.936 318.272 304.136 320.456 304.136 324.032C304.136 327.656 305.936 329.888 308.624 329.888C309.896 329.888 310.88 329.288 311.768 328.304L313.328 329.984C312.056 331.472 310.448 332.288 308.456 332.288ZM321.239 332V318.488H316.319V316.16H328.967V318.488H324.023V332H321.239ZM333.061 332V329.648H336.829V318.488H333.061V316.16H343.405V318.488H339.613V329.648H343.405V332H333.061ZM353.812 332.288C350.188 332.288 347.644 329.12 347.644 324.008C347.644 318.872 350.188 315.872 353.812 315.872C357.46 315.872 359.98 318.896 359.98 324.008C359.98 329.12 357.46 332.288 353.812 332.288ZM353.812 329.888C355.828 329.888 357.148 327.584 357.148 324.008C357.148 320.432 355.828 318.272 353.812 318.272C351.796 318.272 350.5 320.432 350.5 324.008C350.5 327.584 351.796 329.888 353.812 329.888ZM364.003 332V316.16H366.811L371.035 325.136L372.499 328.496H372.571C372.451 326.864 372.187 324.872 372.187 323.12V316.16H374.827V332H371.995L367.795 323L366.331 319.664H366.259C366.379 321.344 366.643 323.24 366.643 324.992V332H364.003ZM400.176 332.288C397.56 332.288 395.736 331.304 394.584 330.056L395.904 328.28C396.912 329.264 398.28 330.032 399.96 330.032C401.832 330.032 403.224 329.12 403.224 327.608C403.224 325.928 401.928 324.824 398.136 324.824V322.808C401.448 322.808 402.696 321.728 402.696 320.216C402.696 318.872 401.64 318.056 400.008 318.056C398.688 318.056 397.536 318.656 396.504 319.568L395.088 317.864C396.456 316.664 398.16 315.872 400.128 315.872C403.224 315.872 405.456 317.384 405.456 320.024C405.456 321.824 404.232 323 402.384 323.672V323.792C404.352 324.272 405.984 325.616 405.984 327.728C405.984 330.608 403.32 332.288 400.176 332.288Z" fill="#EDEDED"/>
</g>
<path d="M629.507 197.788C627.299 197.788 625.211 196.948 623.675 195.46L625.283 193.564C626.459 194.644 628.019 195.388 629.555 195.388C631.499 195.388 632.483 194.572 632.483 193.3C632.483 191.98 631.427 191.572 629.867 190.948L627.731 190.012C626.051 189.364 624.347 188.116 624.347 185.812C624.347 183.292 626.603 181.372 629.795 181.372C631.739 181.372 633.539 182.116 634.835 183.388L633.395 185.14C632.339 184.276 631.259 183.772 629.795 183.772C628.163 183.772 627.155 184.468 627.155 185.668C627.155 186.916 628.427 187.348 629.843 187.924L631.907 188.812C633.899 189.628 635.315 190.78 635.315 193.084C635.315 195.652 633.179 197.788 629.507 197.788ZM639.434 197.5V195.892C644.21 191.572 647.09 188.812 647.09 186.34C647.09 184.66 646.106 183.556 644.186 183.556C642.842 183.556 641.738 184.348 640.802 185.332L639.29 183.82C640.778 182.284 642.29 181.372 644.546 181.372C647.666 181.372 649.73 183.268 649.73 186.196C649.73 189.028 646.97 191.932 643.394 195.316C644.306 195.244 645.362 195.148 646.202 195.148H650.546V197.5H639.434Z" fill="#EDEDED"/>
<g>
<path d="M502.25 226.767C502.25 222.201 505.951 218.5 510.517 218.5H763.983C768.549 218.5 772.25 222.201 772.25 226.767V261.5H502.25V226.767Z" fill="#1E1E1E" shape-rendering="crispEdges"/>
<path d="M510.518 219H763.982C768.272 219 771.75 222.478 771.75 226.768V261H502.75V226.768C502.75 222.478 506.228 219 510.518 219Z" stroke="#4D4D4D" shape-rendering="crispEdges"/>
<path d="M530.104 248V234.488H525.184V232.16H537.832V234.488H532.888V248H530.104ZM541.927 248V232.16H547.159C550.399 232.16 552.919 233.312 552.919 236.84C552.919 239.24 551.671 240.704 549.775 241.352L553.543 248H550.423L547.015 241.784H544.687V248H541.927ZM544.687 239.552H546.871C549.031 239.552 550.183 238.64 550.183 236.84C550.183 234.992 549.031 234.368 546.871 234.368H544.687V239.552ZM555.982 248L561.07 232.16H564.31L569.398 248H566.47L565.246 243.68H560.038L558.79 248H555.982ZM560.638 241.496H564.646L564.094 239.528C563.614 237.848 563.134 236.072 562.678 234.32H562.582C562.15 236.072 561.67 237.848 561.19 239.528L560.638 241.496ZM572.868 248V232.16H575.676L579.9 241.136L581.364 244.496H581.436C581.316 242.864 581.052 240.872 581.052 239.12V232.16H583.692V248H580.86L576.66 239L575.196 235.664H575.124C575.244 237.344 575.508 239.24 575.508 240.992V248H572.868ZM593.907 248.288C591.699 248.288 589.611 247.448 588.075 245.96L589.683 244.064C590.859 245.144 592.419 245.888 593.955 245.888C595.899 245.888 596.883 245.072 596.883 243.8C596.883 242.48 595.827 242.072 594.267 241.448L592.131 240.512C590.451 239.864 588.747 238.616 588.747 236.312C588.747 233.792 591.003 231.872 594.195 231.872C596.139 231.872 597.939 232.616 599.235 233.888L597.795 235.64C596.739 234.776 595.659 234.272 594.195 234.272C592.563 234.272 591.555 234.968 591.555 236.168C591.555 237.416 592.827 237.848 594.243 238.424L596.307 239.312C598.299 240.128 599.715 241.28 599.715 243.584C599.715 246.152 597.579 248.288 593.907 248.288ZM602.754 248L607.842 232.16H611.082L616.17 248H613.242L612.018 243.68H606.81L605.562 248H602.754ZM607.41 241.496H611.418L610.866 239.528C610.386 237.848 609.906 236.072 609.45 234.32H609.354C608.922 236.072 608.442 237.848 607.962 239.528L607.41 241.496ZM626.456 248.288C622.448 248.288 619.304 245.36 619.304 240.128C619.304 234.944 622.4 231.872 626.552 231.872C628.496 231.872 630.032 232.808 631.016 233.84L629.48 235.568C628.688 234.776 627.776 234.272 626.552 234.272C623.936 234.272 622.136 236.456 622.136 240.032C622.136 243.656 623.936 245.888 626.624 245.888C627.896 245.888 628.88 245.288 629.768 244.304L631.328 245.984C630.056 247.472 628.448 248.288 626.456 248.288ZM639.239 248V234.488H634.319V232.16H646.967V234.488H642.023V248H639.239ZM651.061 248V245.648H654.829V234.488H651.061V232.16H661.405V234.488H657.613V245.648H661.405V248H651.061ZM671.812 248.288C668.188 248.288 665.644 245.12 665.644 240.008C665.644 234.872 668.188 231.872 671.812 231.872C675.46 231.872 677.98 234.896 677.98 240.008C677.98 245.12 675.46 248.288 671.812 248.288ZM671.812 245.888C673.828 245.888 675.148 243.584 675.148 240.008C675.148 236.432 673.828 234.272 671.812 234.272C669.796 234.272 668.5 236.432 668.5 240.008C668.5 243.584 669.796 245.888 671.812 245.888ZM682.003 248V232.16H684.811L689.035 241.136L690.499 244.496H690.571C690.451 242.864 690.187 240.872 690.187 239.12V232.16H692.827V248H689.995L685.795 239L684.331 235.664H684.259C684.379 237.344 684.643 239.24 684.643 240.992V248H682.003ZM713.544 248V245.744H717.696V235.16H714.48V233.432C716.184 233.168 717.36 232.736 718.416 232.16H720.432V245.744H724.176V248H713.544Z" fill="#EDEDED"/>
</g>
<g>
<rect x="502.25" y="260.5" width="270" height="43" fill="#462944" shape-rendering="crispEdges"/>
<rect x="502.75" y="261" width="269" height="42" stroke="#4D4D4D" shape-rendering="crispEdges"/>
<path d="M530.104 290V276.488H525.184V274.16H537.832V276.488H532.888V290H530.104ZM541.927 290V274.16H547.159C550.399 274.16 552.919 275.312 552.919 278.84C552.919 281.24 551.671 282.704 549.775 283.352L553.543 290H550.423L547.015 283.784H544.687V290H541.927ZM544.687 281.552H546.871C549.031 281.552 550.183 280.64 550.183 278.84C550.183 276.992 549.031 276.368 546.871 276.368H544.687V281.552ZM555.982 290L561.07 274.16H564.31L569.398 290H566.47L565.246 285.68H560.038L558.79 290H555.982ZM560.638 283.496H564.646L564.094 281.528C563.614 279.848 563.134 278.072 562.678 276.32H562.582C562.15 278.072 561.67 279.848 561.19 281.528L560.638 283.496ZM572.868 290V274.16H575.676L579.9 283.136L581.364 286.496H581.436C581.316 284.864 581.052 282.872 581.052 281.12V274.16H583.692V290H580.86L576.66 281L575.196 277.664H575.124C575.244 279.344 575.508 281.24 575.508 282.992V290H572.868ZM593.907 290.288C591.699 290.288 589.611 289.448 588.075 287.96L589.683 286.064C590.859 287.144 592.419 287.888 593.955 287.888C595.899 287.888 596.883 287.072 596.883 285.8C596.883 284.48 595.827 284.072 594.267 283.448L592.131 282.512C590.451 281.864 588.747 280.616 588.747 278.312C588.747 275.792 591.003 273.872 594.195 273.872C596.139 273.872 597.939 274.616 599.235 275.888L597.795 277.64C596.739 276.776 595.659 276.272 594.195 276.272C592.563 276.272 591.555 276.968 591.555 278.168C591.555 279.416 592.827 279.848 594.243 280.424L596.307 281.312C598.299 282.128 599.715 283.28 599.715 285.584C599.715 288.152 597.579 290.288 593.907 290.288ZM602.754 290L607.842 274.16H611.082L616.17 290H613.242L612.018 285.68H606.81L605.562 290H602.754ZM607.41 283.496H611.418L610.866 281.528C610.386 279.848 609.906 278.072 609.45 276.32H609.354C608.922 278.072 608.442 279.848 607.962 281.528L607.41 283.496ZM626.456 290.288C622.448 290.288 619.304 287.36 619.304 282.128C619.304 276.944 622.4 273.872 626.552 273.872C628.496 273.872 630.032 274.808 631.016 275.84L629.48 277.568C628.688 276.776 627.776 276.272 626.552 276.272C623.936 276.272 622.136 278.456 622.136 282.032C622.136 285.656 623.936 287.888 626.624 287.888C627.896 287.888 628.88 287.288 629.768 286.304L631.328 287.984C630.056 289.472 628.448 290.288 626.456 290.288ZM639.239 290V276.488H634.319V274.16H646.967V276.488H642.023V290H639.239ZM651.061 290V287.648H654.829V276.488H651.061V274.16H661.405V276.488H657.613V287.648H661.405V290H651.061ZM671.812 290.288C668.188 290.288 665.644 287.12 665.644 282.008C665.644 276.872 668.188 273.872 671.812 273.872C675.46 273.872 677.98 276.896 677.98 282.008C677.98 287.12 675.46 290.288 671.812 290.288ZM671.812 287.888C673.828 287.888 675.148 285.584 675.148 282.008C675.148 278.432 673.828 276.272 671.812 276.272C669.796 276.272 668.5 278.432 668.5 282.008C668.5 285.584 669.796 287.888 671.812 287.888ZM682.003 290V274.16H684.811L689.035 283.136L690.499 286.496H690.571C690.451 284.864 690.187 282.872 690.187 281.12V274.16H692.827V290H689.995L685.795 281L684.331 277.664H684.259C684.379 279.344 684.643 281.24 684.643 282.992V290H682.003ZM712.968 290V288.392C717.744 284.072 720.624 281.312 720.624 278.84C720.624 277.16 719.64 276.056 717.72 276.056C716.376 276.056 715.272 276.848 714.336 277.832L712.824 276.32C714.312 274.784 715.824 273.872 718.08 273.872C721.2 273.872 723.264 275.768 723.264 278.696C723.264 281.528 720.504 284.432 716.928 287.816C717.84 287.744 718.896 287.648 719.736 287.648H724.08V290H712.968Z" fill="#EDEDED"/>
</g>
<g>
<path d="M502.25 302.5H772.25V337.233C772.25 341.799 768.549 345.5 763.983 345.5H510.517C505.951 345.5 502.25 341.799 502.25 337.233V302.5Z" fill="#1E1E1E"/>
<path d="M771.75 303V337.232C771.75 341.522 768.272 345 763.982 345H510.518C506.228 345 502.75 341.522 502.75 337.232V303H771.75Z" stroke="#4D4D4D"/>
</g>
<path d="M951.257 197.788C949.049 197.788 946.961 196.948 945.425 195.46L947.033 193.564C948.209 194.644 949.769 195.388 951.305 195.388C953.249 195.388 954.233 194.572 954.233 193.3C954.233 191.98 953.177 191.572 951.617 190.948L949.481 190.012C947.801 189.364 946.097 188.116 946.097 185.812C946.097 183.292 948.353 181.372 951.545 181.372C953.489 181.372 955.289 182.116 956.585 183.388L955.145 185.14C954.089 184.276 953.009 183.772 951.545 183.772C949.913 183.772 948.905 184.468 948.905 185.668C948.905 186.916 950.177 187.348 951.593 187.924L953.657 188.812C955.649 189.628 957.065 190.78 957.065 193.084C957.065 195.652 954.929 197.788 951.257 197.788ZM966.392 197.788C963.776 197.788 961.952 196.804 960.8 195.556L962.12 193.78C963.128 194.764 964.496 195.532 966.176 195.532C968.048 195.532 969.44 194.62 969.44 193.108C969.44 191.428 968.144 190.324 964.352 190.324V188.308C967.664 188.308 968.912 187.228 968.912 185.716C968.912 184.372 967.856 183.556 966.224 183.556C964.904 183.556 963.752 184.156 962.72 185.068L961.304 183.364C962.672 182.164 964.376 181.372 966.344 181.372C969.44 181.372 971.672 182.884 971.672 185.524C971.672 187.324 970.448 188.5 968.6 189.172V189.292C970.568 189.772 972.2 191.116 972.2 193.228C972.2 196.108 969.536 197.788 966.392 197.788Z" fill="#EDEDED"/>
<g>
<path d="M820.25 226.767C820.25 222.201 823.951 218.5 828.517 218.5H1089.48C1094.05 218.5 1097.75 222.201 1097.75 226.767V261.5H820.25V226.767Z" fill="#1E1E1E" shape-rendering="crispEdges"/>
<path d="M828.518 219H1089.48C1093.77 219 1097.25 222.478 1097.25 226.768V261H820.75V226.768C820.75 222.478 824.228 219 828.518 219Z" stroke="#4D4D4D" shape-rendering="crispEdges"/>
<path d="M848.104 248V234.488H843.184V232.16H855.832V234.488H850.888V248H848.104ZM859.927 248V232.16H865.159C868.399 232.16 870.919 233.312 870.919 236.84C870.919 239.24 869.671 240.704 867.775 241.352L871.543 248H868.423L865.015 241.784H862.687V248H859.927ZM862.687 239.552H864.871C867.031 239.552 868.183 238.64 868.183 236.84C868.183 234.992 867.031 234.368 864.871 234.368H862.687V239.552ZM873.982 248L879.07 232.16H882.31L887.398 248H884.47L883.246 243.68H878.038L876.79 248H873.982ZM878.638 241.496H882.646L882.094 239.528C881.614 237.848 881.134 236.072 880.678 234.32H880.582C880.15 236.072 879.67 237.848 879.19 239.528L878.638 241.496ZM890.868 248V232.16H893.676L897.9 241.136L899.364 244.496H899.436C899.316 242.864 899.052 240.872 899.052 239.12V232.16H901.692V248H898.86L894.66 239L893.196 235.664H893.124C893.244 237.344 893.508 239.24 893.508 240.992V248H890.868ZM911.907 248.288C909.699 248.288 907.611 247.448 906.075 245.96L907.683 244.064C908.859 245.144 910.419 245.888 911.955 245.888C913.899 245.888 914.883 245.072 914.883 243.8C914.883 242.48 913.827 242.072 912.267 241.448L910.131 240.512C908.451 239.864 906.747 238.616 906.747 236.312C906.747 233.792 909.003 231.872 912.195 231.872C914.139 231.872 915.939 232.616 917.235 233.888L915.795 235.64C914.739 234.776 913.659 234.272 912.195 234.272C910.563 234.272 909.555 234.968 909.555 236.168C909.555 237.416 910.827 237.848 912.243 238.424L914.307 239.312C916.299 240.128 917.715 241.28 917.715 243.584C917.715 246.152 915.579 248.288 911.907 248.288ZM920.754 248L925.842 232.16H929.082L934.17 248H931.242L930.018 243.68H924.81L923.562 248H920.754ZM925.41 241.496H929.418L928.866 239.528C928.386 237.848 927.906 236.072 927.45 234.32H927.354C926.922 236.072 926.442 237.848 925.962 239.528L925.41 241.496ZM944.456 248.288C940.448 248.288 937.304 245.36 937.304 240.128C937.304 234.944 940.4 231.872 944.552 231.872C946.496 231.872 948.032 232.808 949.016 233.84L947.48 235.568C946.688 234.776 945.776 234.272 944.552 234.272C941.936 234.272 940.136 236.456 940.136 240.032C940.136 243.656 941.936 245.888 944.624 245.888C945.896 245.888 946.88 245.288 947.768 244.304L949.328 245.984C948.056 247.472 946.448 248.288 944.456 248.288ZM957.239 248V234.488H952.319V232.16H964.967V234.488H960.023V248H957.239ZM969.061 248V245.648H972.829V234.488H969.061V232.16H979.405V234.488H975.613V245.648H979.405V248H969.061ZM989.812 248.288C986.188 248.288 983.644 245.12 983.644 240.008C983.644 234.872 986.188 231.872 989.812 231.872C993.46 231.872 995.98 234.896 995.98 240.008C995.98 245.12 993.46 248.288 989.812 248.288ZM989.812 245.888C991.828 245.888 993.148 243.584 993.148 240.008C993.148 236.432 991.828 234.272 989.812 234.272C987.796 234.272 986.5 236.432 986.5 240.008C986.5 243.584 987.796 245.888 989.812 245.888ZM1000 248V232.16H1002.81L1007.03 241.136L1008.5 244.496H1008.57C1008.45 242.864 1008.19 240.872 1008.19 239.12V232.16H1010.83V248H1007.99L1003.79 239L1002.33 235.664H1002.26C1002.38 237.344 1002.64 239.24 1002.64 240.992V248H1000ZM1031.54 248V245.744H1035.7V235.16H1032.48V233.432C1034.18 233.168 1035.36 232.736 1036.42 232.16H1038.43V245.744H1042.18V248H1031.54Z" fill="#EDEDED"/>
</g>
<g>
<rect x="820.25" y="260.5" width="277.5" height="43" fill="#2F1452" shape-rendering="crispEdges"/>
<rect x="820.75" y="261" width="276.5" height="42" stroke="#4D4D4D" shape-rendering="crispEdges"/>
<path d="M848.104 290V276.488H843.184V274.16H855.832V276.488H850.888V290H848.104ZM859.927 290V274.16H865.159C868.399 274.16 870.919 275.312 870.919 278.84C870.919 281.24 869.671 282.704 867.775 283.352L871.543 290H868.423L865.015 283.784H862.687V290H859.927ZM862.687 281.552H864.871C867.031 281.552 868.183 280.64 868.183 278.84C868.183 276.992 867.031 276.368 864.871 276.368H862.687V281.552ZM873.982 290L879.07 274.16H882.31L887.398 290H884.47L883.246 285.68H878.038L876.79 290H873.982ZM878.638 283.496H882.646L882.094 281.528C881.614 279.848 881.134 278.072 880.678 276.32H880.582C880.15 278.072 879.67 279.848 879.19 281.528L878.638 283.496ZM890.868 290V274.16H893.676L897.9 283.136L899.364 286.496H899.436C899.316 284.864 899.052 282.872 899.052 281.12V274.16H901.692V290H898.86L894.66 281L893.196 277.664H893.124C893.244 279.344 893.508 281.24 893.508 282.992V290H890.868ZM911.907 290.288C909.699 290.288 907.611 289.448 906.075 287.96L907.683 286.064C908.859 287.144 910.419 287.888 911.955 287.888C913.899 287.888 914.883 287.072 914.883 285.8C914.883 284.48 913.827 284.072 912.267 283.448L910.131 282.512C908.451 281.864 906.747 280.616 906.747 278.312C906.747 275.792 909.003 273.872 912.195 273.872C914.139 273.872 915.939 274.616 917.235 275.888L915.795 277.64C914.739 276.776 913.659 276.272 912.195 276.272C910.563 276.272 909.555 276.968 909.555 278.168C909.555 279.416 910.827 279.848 912.243 280.424L914.307 281.312C916.299 282.128 917.715 283.28 917.715 285.584C917.715 288.152 915.579 290.288 911.907 290.288ZM920.754 290L925.842 274.16H929.082L934.17 290H931.242L930.018 285.68H924.81L923.562 290H920.754ZM925.41 283.496H929.418L928.866 281.528C928.386 279.848 927.906 278.072 927.45 276.32H927.354C926.922 278.072 926.442 279.848 925.962 281.528L925.41 283.496ZM944.456 290.288C940.448 290.288 937.304 287.36 937.304 282.128C937.304 276.944 940.4 273.872 944.552 273.872C946.496 273.872 948.032 274.808 949.016 275.84L947.48 277.568C946.688 276.776 945.776 276.272 944.552 276.272C941.936 276.272 940.136 278.456 940.136 282.032C940.136 285.656 941.936 287.888 944.624 287.888C945.896 287.888 946.88 287.288 947.768 286.304L949.328 287.984C948.056 289.472 946.448 290.288 944.456 290.288ZM957.239 290V276.488H952.319V274.16H964.967V276.488H960.023V290H957.239ZM969.061 290V287.648H972.829V276.488H969.061V274.16H979.405V276.488H975.613V287.648H979.405V290H969.061ZM989.812 290.288C986.188 290.288 983.644 287.12 983.644 282.008C983.644 276.872 986.188 273.872 989.812 273.872C993.46 273.872 995.98 276.896 995.98 282.008C995.98 287.12 993.46 290.288 989.812 290.288ZM989.812 287.888C991.828 287.888 993.148 285.584 993.148 282.008C993.148 278.432 991.828 276.272 989.812 276.272C987.796 276.272 986.5 278.432 986.5 282.008C986.5 285.584 987.796 287.888 989.812 287.888ZM1000 290V274.16H1002.81L1007.03 283.136L1008.5 286.496H1008.57C1008.45 284.864 1008.19 282.872 1008.19 281.12V274.16H1010.83V290H1007.99L1003.79 281L1002.33 277.664H1002.26C1002.38 279.344 1002.64 281.24 1002.64 282.992V290H1000ZM1037.9 290V285.872H1030.27V284L1035.34 274.16H1038.14L1033.08 283.736H1037.9V279.608H1040.47V283.736H1042.63V285.872H1040.47V290H1037.9Z" fill="#EDEDED"/>
</g>
<g>
<path d="M820.25 302.5H1097.75V337.233C1097.75 341.799 1094.05 345.5 1089.48 345.5H828.517C823.951 345.5 820.25 341.799 820.25 337.233V302.5Z" fill="#1E1E1E"/>
<path d="M1097.25 303V337.232C1097.25 341.522 1093.77 345 1089.48 345H828.518C824.228 345 820.75 341.522 820.75 337.232V303H1097.25Z" stroke="#4D4D4D"/>
</g>
<path d="M1273 197.788C1270.79 197.788 1268.7 196.948 1267.17 195.46L1268.77 193.564C1269.95 194.644 1271.51 195.388 1273.05 195.388C1274.99 195.388 1275.97 194.572 1275.97 193.3C1275.97 191.98 1274.92 191.572 1273.36 190.948L1271.22 190.012C1269.54 189.364 1267.84 188.116 1267.84 185.812C1267.84 183.292 1270.09 181.372 1273.29 181.372C1275.23 181.372 1277.03 182.116 1278.33 183.388L1276.89 185.14C1275.83 184.276 1274.75 183.772 1273.29 183.772C1271.65 183.772 1270.65 184.468 1270.65 185.668C1270.65 186.916 1271.92 187.348 1273.33 187.924L1275.4 188.812C1277.39 189.628 1278.81 190.78 1278.81 193.084C1278.81 195.652 1276.67 197.788 1273 197.788ZM1289.86 197.5V193.372H1282.23V191.5L1287.29 181.66H1290.1L1285.04 191.236H1289.86V187.108H1292.43V191.236H1294.59V193.372H1292.43V197.5H1289.86Z" fill="#EDEDED"/>
<g>
<path d="M1145.75 226.767C1145.75 222.201 1149.45 218.5 1154.02 218.5H1407.48C1412.05 218.5 1415.75 222.201 1415.75 226.767V261.5H1145.75V226.767Z" fill="#1E1E1E" shape-rendering="crispEdges"/>
<path d="M1154.02 219H1407.48C1411.77 219 1415.25 222.478 1415.25 226.768V261H1146.25V226.768C1146.25 222.478 1149.73 219 1154.02 219Z" stroke="#4D4D4D" shape-rendering="crispEdges"/>
<path d="M1173.6 248V234.488H1168.68V232.16H1181.33V234.488H1176.39V248H1173.6ZM1185.43 248V232.16H1190.66C1193.9 232.16 1196.42 233.312 1196.42 236.84C1196.42 239.24 1195.17 240.704 1193.28 241.352L1197.04 248H1193.92L1190.52 241.784H1188.19V248H1185.43ZM1188.19 239.552H1190.37C1192.53 239.552 1193.68 238.64 1193.68 236.84C1193.68 234.992 1192.53 234.368 1190.37 234.368H1188.19V239.552ZM1199.48 248L1204.57 232.16H1207.81L1212.9 248H1209.97L1208.75 243.68H1203.54L1202.29 248H1199.48ZM1204.14 241.496H1208.15L1207.59 239.528C1207.11 237.848 1206.63 236.072 1206.18 234.32H1206.08C1205.65 236.072 1205.17 237.848 1204.69 239.528L1204.14 241.496ZM1216.37 248V232.16H1219.18L1223.4 241.136L1224.86 244.496H1224.94C1224.82 242.864 1224.55 240.872 1224.55 239.12V232.16H1227.19V248H1224.36L1220.16 239L1218.7 235.664H1218.62C1218.74 237.344 1219.01 239.24 1219.01 240.992V248H1216.37ZM1237.41 248.288C1235.2 248.288 1233.11 247.448 1231.57 245.96L1233.18 244.064C1234.36 245.144 1235.92 245.888 1237.45 245.888C1239.4 245.888 1240.38 245.072 1240.38 243.8C1240.38 242.48 1239.33 242.072 1237.77 241.448L1235.63 240.512C1233.95 239.864 1232.25 238.616 1232.25 236.312C1232.25 233.792 1234.5 231.872 1237.69 231.872C1239.64 231.872 1241.44 232.616 1242.73 233.888L1241.29 235.64C1240.24 234.776 1239.16 234.272 1237.69 234.272C1236.06 234.272 1235.05 234.968 1235.05 236.168C1235.05 237.416 1236.33 237.848 1237.74 238.424L1239.81 239.312C1241.8 240.128 1243.21 241.28 1243.21 243.584C1243.21 246.152 1241.08 248.288 1237.41 248.288ZM1246.25 248L1251.34 232.16H1254.58L1259.67 248H1256.74L1255.52 243.68H1250.31L1249.06 248H1246.25ZM1250.91 241.496H1254.92L1254.37 239.528C1253.89 237.848 1253.41 236.072 1252.95 234.32H1252.85C1252.42 236.072 1251.94 237.848 1251.46 239.528L1250.91 241.496ZM1269.96 248.288C1265.95 248.288 1262.8 245.36 1262.8 240.128C1262.8 234.944 1265.9 231.872 1270.05 231.872C1272 231.872 1273.53 232.808 1274.52 233.84L1272.98 235.568C1272.19 234.776 1271.28 234.272 1270.05 234.272C1267.44 234.272 1265.64 236.456 1265.64 240.032C1265.64 243.656 1267.44 245.888 1270.12 245.888C1271.4 245.888 1272.38 245.288 1273.27 244.304L1274.83 245.984C1273.56 247.472 1271.95 248.288 1269.96 248.288ZM1282.74 248V234.488H1277.82V232.16H1290.47V234.488H1285.52V248H1282.74ZM1294.56 248V245.648H1298.33V234.488H1294.56V232.16H1304.91V234.488H1301.11V245.648H1304.91V248H1294.56ZM1315.31 248.288C1311.69 248.288 1309.14 245.12 1309.14 240.008C1309.14 234.872 1311.69 231.872 1315.31 231.872C1318.96 231.872 1321.48 234.896 1321.48 240.008C1321.48 245.12 1318.96 248.288 1315.31 248.288ZM1315.31 245.888C1317.33 245.888 1318.65 243.584 1318.65 240.008C1318.65 236.432 1317.33 234.272 1315.31 234.272C1313.3 234.272 1312 236.432 1312 240.008C1312 243.584 1313.3 245.888 1315.31 245.888ZM1325.5 248V232.16H1328.31L1332.53 241.136L1334 244.496H1334.07C1333.95 242.864 1333.69 240.872 1333.69 239.12V232.16H1336.33V248H1333.49L1329.29 239L1327.83 235.664H1327.76C1327.88 237.344 1328.14 239.24 1328.14 240.992V248H1325.5ZM1357.04 248V245.744H1361.2V235.16H1357.98V233.432C1359.68 233.168 1360.86 232.736 1361.92 232.16H1363.93V245.744H1367.68V248H1357.04Z" fill="#EDEDED"/>
</g>
<g>
<rect x="1145.75" y="260.5" width="270" height="43" fill="#1E3A8A" shape-rendering="crispEdges"/>
<rect x="1146.25" y="261" width="269" height="42" stroke="#4D4D4D" shape-rendering="crispEdges"/>
<path d="M1173.6 290V276.488H1168.68V274.16H1181.33V276.488H1176.39V290H1173.6ZM1185.43 290V274.16H1190.66C1193.9 274.16 1196.42 275.312 1196.42 278.84C1196.42 281.24 1195.17 282.704 1193.28 283.352L1197.04 290H1193.92L1190.52 283.784H1188.19V290H1185.43ZM1188.19 281.552H1190.37C1192.53 281.552 1193.68 280.64 1193.68 278.84C1193.68 276.992 1192.53 276.368 1190.37 276.368H1188.19V281.552ZM1199.48 290L1204.57 274.16H1207.81L1212.9 290H1209.97L1208.75 285.68H1203.54L1202.29 290H1199.48ZM1204.14 283.496H1208.15L1207.59 281.528C1207.11 279.848 1206.63 278.072 1206.18 276.32H1206.08C1205.65 278.072 1205.17 279.848 1204.69 281.528L1204.14 283.496ZM1216.37 290V274.16H1219.18L1223.4 283.136L1224.86 286.496H1224.94C1224.82 284.864 1224.55 282.872 1224.55 281.12V274.16H1227.19V290H1224.36L1220.16 281L1218.7 277.664H1218.62C1218.74 279.344 1219.01 281.24 1219.01 282.992V290H1216.37ZM1237.41 290.288C1235.2 290.288 1233.11 289.448 1231.57 287.96L1233.18 286.064C1234.36 287.144 1235.92 287.888 1237.45 287.888C1239.4 287.888 1240.38 287.072 1240.38 285.8C1240.38 284.48 1239.33 284.072 1237.77 283.448L1235.63 282.512C1233.95 281.864 1232.25 280.616 1232.25 278.312C1232.25 275.792 1234.5 273.872 1237.69 273.872C1239.64 273.872 1241.44 274.616 1242.73 275.888L1241.29 277.64C1240.24 276.776 1239.16 276.272 1237.69 276.272C1236.06 276.272 1235.05 276.968 1235.05 278.168C1235.05 279.416 1236.33 279.848 1237.74 280.424L1239.81 281.312C1241.8 282.128 1243.21 283.28 1243.21 285.584C1243.21 288.152 1241.08 290.288 1237.41 290.288ZM1246.25 290L1251.34 274.16H1254.58L1259.67 290H1256.74L1255.52 285.68H1250.31L1249.06 290H1246.25ZM1250.91 283.496H1254.92L1254.37 281.528C1253.89 279.848 1253.41 278.072 1252.95 276.32H1252.85C1252.42 278.072 1251.94 279.848 1251.46 281.528L1250.91 283.496ZM1269.96 290.288C1265.95 290.288 1262.8 287.36 1262.8 282.128C1262.8 276.944 1265.9 273.872 1270.05 273.872C1272 273.872 1273.53 274.808 1274.52 275.84L1272.98 277.568C1272.19 276.776 1271.28 276.272 1270.05 276.272C1267.44 276.272 1265.64 278.456 1265.64 282.032C1265.64 285.656 1267.44 287.888 1270.12 287.888C1271.4 287.888 1272.38 287.288 1273.27 286.304L1274.83 287.984C1273.56 289.472 1271.95 290.288 1269.96 290.288ZM1282.74 290V276.488H1277.82V274.16H1290.47V276.488H1285.52V290H1282.74ZM1294.56 290V287.648H1298.33V276.488H1294.56V274.16H1304.91V276.488H1301.11V287.648H1304.91V290H1294.56ZM1315.31 290.288C1311.69 290.288 1309.14 287.12 1309.14 282.008C1309.14 276.872 1311.69 273.872 1315.31 273.872C1318.96 273.872 1321.48 276.896 1321.48 282.008C1321.48 287.12 1318.96 290.288 1315.31 290.288ZM1315.31 287.888C1317.33 287.888 1318.65 285.584 1318.65 282.008C1318.65 278.432 1317.33 276.272 1315.31 276.272C1313.3 276.272 1312 278.432 1312 282.008C1312 285.584 1313.3 287.888 1315.31 287.888ZM1325.5 290V274.16H1328.31L1332.53 283.136L1334 286.496H1334.07C1333.95 284.864 1333.69 282.872 1333.69 281.12V274.16H1336.33V290H1333.49L1329.29 281L1327.83 277.664H1327.76C1327.88 279.344 1328.14 281.24 1328.14 282.992V290H1325.5ZM1356.47 290V288.392C1361.24 284.072 1364.12 281.312 1364.12 278.84C1364.12 277.16 1363.14 276.056 1361.22 276.056C1359.88 276.056 1358.77 276.848 1357.84 277.832L1356.32 276.32C1357.81 274.784 1359.32 273.872 1361.58 273.872C1364.7 273.872 1366.76 275.768 1366.76 278.696C1366.76 281.528 1364 284.432 1360.43 287.816C1361.34 287.744 1362.4 287.648 1363.24 287.648H1367.58V290H1356.47Z" fill="#EDEDED"/>
</g>
<g>
<path d="M1145.75 302.5H1415.75V337.233C1415.75 341.799 1412.05 345.5 1407.48 345.5H1154.02C1149.45 345.5 1145.75 341.799 1145.75 337.233V302.5Z" fill="#1E3A8A" shape-rendering="crispEdges"/>
<path d="M1415.25 303V337.232C1415.25 341.522 1411.77 345 1407.48 345H1154.02C1149.73 345 1146.25 341.522 1146.25 337.232V303H1415.25Z" stroke="#4D4D4D" shape-rendering="crispEdges"/>
<path d="M1173.6 332V318.488H1168.68V316.16H1181.33V318.488H1176.39V332H1173.6ZM1185.43 332V316.16H1190.66C1193.9 316.16 1196.42 317.312 1196.42 320.84C1196.42 323.24 1195.17 324.704 1193.28 325.352L1197.04 332H1193.92L1190.52 325.784H1188.19V332H1185.43ZM1188.19 323.552H1190.37C1192.53 323.552 1193.68 322.64 1193.68 320.84C1193.68 318.992 1192.53 318.368 1190.37 318.368H1188.19V323.552ZM1199.48 332L1204.57 316.16H1207.81L1212.9 332H1209.97L1208.75 327.68H1203.54L1202.29 332H1199.48ZM1204.14 325.496H1208.15L1207.59 323.528C1207.11 321.848 1206.63 320.072 1206.18 318.32H1206.08C1205.65 320.072 1205.17 321.848 1204.69 323.528L1204.14 325.496ZM1216.37 332V316.16H1219.18L1223.4 325.136L1224.86 328.496H1224.94C1224.82 326.864 1224.55 324.872 1224.55 323.12V316.16H1227.19V332H1224.36L1220.16 323L1218.7 319.664H1218.62C1218.74 321.344 1219.01 323.24 1219.01 324.992V332H1216.37ZM1237.41 332.288C1235.2 332.288 1233.11 331.448 1231.57 329.96L1233.18 328.064C1234.36 329.144 1235.92 329.888 1237.45 329.888C1239.4 329.888 1240.38 329.072 1240.38 327.8C1240.38 326.48 1239.33 326.072 1237.77 325.448L1235.63 324.512C1233.95 323.864 1232.25 322.616 1232.25 320.312C1232.25 317.792 1234.5 315.872 1237.69 315.872C1239.64 315.872 1241.44 316.616 1242.73 317.888L1241.29 319.64C1240.24 318.776 1239.16 318.272 1237.69 318.272C1236.06 318.272 1235.05 318.968 1235.05 320.168C1235.05 321.416 1236.33 321.848 1237.74 322.424L1239.81 323.312C1241.8 324.128 1243.21 325.28 1243.21 327.584C1243.21 330.152 1241.08 332.288 1237.41 332.288ZM1246.25 332L1251.34 316.16H1254.58L1259.67 332H1256.74L1255.52 327.68H1250.31L1249.06 332H1246.25ZM1250.91 325.496H1254.92L1254.37 323.528C1253.89 321.848 1253.41 320.072 1252.95 318.32H1252.85C1252.42 320.072 1251.94 321.848 1251.46 323.528L1250.91 325.496ZM1269.96 332.288C1265.95 332.288 1262.8 329.36 1262.8 324.128C1262.8 318.944 1265.9 315.872 1270.05 315.872C1272 315.872 1273.53 316.808 1274.52 317.84L1272.98 319.568C1272.19 318.776 1271.28 318.272 1270.05 318.272C1267.44 318.272 1265.64 320.456 1265.64 324.032C1265.64 327.656 1267.44 329.888 1270.12 329.888C1271.4 329.888 1272.38 329.288 1273.27 328.304L1274.83 329.984C1273.56 331.472 1271.95 332.288 1269.96 332.288ZM1282.74 332V318.488H1277.82V316.16H1290.47V318.488H1285.52V332H1282.74ZM1294.56 332V329.648H1298.33V318.488H1294.56V316.16H1304.91V318.488H1301.11V329.648H1304.91V332H1294.56ZM1315.31 332.288C1311.69 332.288 1309.14 329.12 1309.14 324.008C1309.14 318.872 1311.69 315.872 1315.31 315.872C1318.96 315.872 1321.48 318.896 1321.48 324.008C1321.48 329.12 1318.96 332.288 1315.31 332.288ZM1315.31 329.888C1317.33 329.888 1318.65 327.584 1318.65 324.008C1318.65 320.432 1317.33 318.272 1315.31 318.272C1313.3 318.272 1312 320.432 1312 324.008C1312 327.584 1313.3 329.888 1315.31 329.888ZM1325.5 332V316.16H1328.31L1332.53 325.136L1334 328.496H1334.07C1333.95 326.864 1333.69 324.872 1333.69 323.12V316.16H1336.33V332H1333.49L1329.29 323L1327.83 319.664H1327.76C1327.88 321.344 1328.14 323.24 1328.14 324.992V332H1325.5ZM1361.72 332.288C1359.04 332.288 1357.33 331.28 1356.11 330.104L1357.4 328.328C1358.41 329.264 1359.61 330.032 1361.36 330.032C1363.31 330.032 1364.77 328.88 1364.77 326.912C1364.77 324.992 1363.45 323.888 1361.51 323.888C1360.36 323.888 1359.71 324.176 1358.65 324.776L1357.36 323.936L1357.81 316.16H1366.81V318.488H1360.21L1359.88 322.448C1360.67 322.088 1361.32 321.896 1362.3 321.896C1365.16 321.896 1367.53 323.456 1367.53 326.84C1367.53 330.32 1364.75 332.288 1361.72 332.288Z" fill="#EDEDED"/>
</g>
<defs>
<filter id="filter0_d_1208_1896" x="181.494" y="218.5" width="275.512" height="48.5116" filterUnits="userSpaceOnUse" color-interpolation-filters="sRGB">
<feFlood flood-opacity="0" result="BackgroundImageFix"/>
<feColorMatrix in="SourceAlpha" type="matrix" values="0 0 0 0 0 0 0 0 0 0 0 0 0 0 0 0 0 0 127 0" result="hardAlpha"/>
<feOffset dy="2.75581"/>
<feGaussianBlur stdDeviation="1.37791"/>
<feComposite in2="hardAlpha" operator="out"/>
<feColorMatrix type="matrix" values="0 0 0 0 0 0 0 0 0 0 0 0 0 0 0 0 0 0 0.03 0"/>
<feBlend mode="normal" in2="BackgroundImageFix" result="effect1_dropShadow_1208_1896"/>
<feBlend mode="normal" in="SourceGraphic" in2="effect1_dropShadow_1208_1896" result="shape"/>
</filter>
<filter id="filter1_d_1208_1896" x="181.494" y="260.5" width="275.512" height="48.5116" filterUnits="userSpaceOnUse" color-interpolation-filters="sRGB">
<feFlood flood-opacity="0" result="BackgroundImageFix"/>
<feColorMatrix in="SourceAlpha" type="matrix" values="0 0 0 0 0 0 0 0 0 0 0 0 0 0 0 0 0 0 127 0" result="hardAlpha"/>
<feOffset dy="2.75581"/>
<feGaussianBlur stdDeviation="1.37791"/>
<feComposite in2="hardAlpha" operator="out"/>
<feColorMatrix type="matrix" values="0 0 0 0 0 0 0 0 0 0 0 0 0 0 0 0 0 0 0.03 0"/>
<feBlend mode="normal" in2="BackgroundImageFix" result="effect1_dropShadow_1208_1896"/>
<feBlend mode="normal" in="SourceGraphic" in2="effect1_dropShadow_1208_1896" result="shape"/>
</filter>
<filter id="filter2_d_1208_1896" x="181.494" y="302.5" width="275.512" height="48.5116" filterUnits="userSpaceOnUse" color-interpolation-filters="sRGB">
<feFlood flood-opacity="0" result="BackgroundImageFix"/>
<feColorMatrix in="SourceAlpha" type="matrix" values="0 0 0 0 0 0 0 0 0 0 0 0 0 0 0 0 0 0 127 0" result="hardAlpha"/>
<feOffset dy="2.75581"/>
<feGaussianBlur stdDeviation="1.37791"/>
<feComposite in2="hardAlpha" operator="out"/>
<feColorMatrix type="matrix" values="0 0 0 0 0 0 0 0 0 0 0 0 0 0 0 0 0 0 0.03 0"/>
<feBlend mode="normal" in2="BackgroundImageFix" result="effect1_dropShadow_1208_1896"/>
<feBlend mode="normal" in="SourceGraphic" in2="effect1_dropShadow_1208_1896" result="shape"/>
</filter>
<filter id="filter3_d_1208_1896" x="499.494" y="218.5" width="275.512" height="48.5116" filterUnits="userSpaceOnUse" color-interpolation-filters="sRGB">
<feFlood flood-opacity="0" result="BackgroundImageFix"/>
<feColorMatrix in="SourceAlpha" type="matrix" values="0 0 0 0 0 0 0 0 0 0 0 0 0 0 0 0 0 0 127 0" result="hardAlpha"/>
<feOffset dy="2.75581"/>
<feGaussianBlur stdDeviation="1.37791"/>
<feComposite in2="hardAlpha" operator="out"/>
<feColorMatrix type="matrix" values="0 0 0 0 0 0 0 0 0 0 0 0 0 0 0 0 0 0 0.03 0"/>
<feBlend mode="normal" in2="BackgroundImageFix" result="effect1_dropShadow_1208_1896"/>
<feBlend mode="normal" in="SourceGraphic" in2="effect1_dropShadow_1208_1896" result="shape"/>
</filter>
<filter id="filter4_d_1208_1896" x="499.494" y="260.5" width="275.512" height="48.5116" filterUnits="userSpaceOnUse" color-interpolation-filters="sRGB">
<feFlood flood-opacity="0" result="BackgroundImageFix"/>
<feColorMatrix in="SourceAlpha" type="matrix" values="0 0 0 0 0 0 0 0 0 0 0 0 0 0 0 0 0 0 127 0" result="hardAlpha"/>
<feOffset dy="2.75581"/>
<feGaussianBlur stdDeviation="1.37791"/>
<feComposite in2="hardAlpha" operator="out"/>
<feColorMatrix type="matrix" values="0 0 0 0 0 0 0 0 0 0 0 0 0 0 0 0 0 0 0.03 0"/>
<feBlend mode="normal" in2="BackgroundImageFix" result="effect1_dropShadow_1208_1896"/>
<feBlend mode="normal" in="SourceGraphic" in2="effect1_dropShadow_1208_1896" result="shape"/>
</filter>
<filter id="filter5_d_1208_1896" x="499.494" y="302.5" width="275.512" height="48.5116" filterUnits="userSpaceOnUse" color-interpolation-filters="sRGB">
<feFlood flood-opacity="0" result="BackgroundImageFix"/>
<feColorMatrix in="SourceAlpha" type="matrix" values="0 0 0 0 0 0 0 0 0 0 0 0 0 0 0 0 0 0 127 0" result="hardAlpha"/>
<feOffset dy="2.75581"/>
<feGaussianBlur stdDeviation="1.37791"/>
<feComposite in2="hardAlpha" operator="out"/>
<feColorMatrix type="matrix" values="0 0 0 0 0 0 0 0 0 0 0 0 0 0 0 0 0 0 0.03 0"/>
<feBlend mode="normal" in2="BackgroundImageFix" result="effect1_dropShadow_1208_1896"/>
<feBlend mode="normal" in="SourceGraphic" in2="effect1_dropShadow_1208_1896" result="shape"/>
</filter>
<filter id="filter6_d_1208_1896" x="817.494" y="218.5" width="283.012" height="48.5116" filterUnits="userSpaceOnUse" color-interpolation-filters="sRGB">
<feFlood flood-opacity="0" result="BackgroundImageFix"/>
<feColorMatrix in="SourceAlpha" type="matrix" values="0 0 0 0 0 0 0 0 0 0 0 0 0 0 0 0 0 0 127 0" result="hardAlpha"/>
<feOffset dy="2.75581"/>
<feGaussianBlur stdDeviation="1.37791"/>
<feComposite in2="hardAlpha" operator="out"/>
<feColorMatrix type="matrix" values="0 0 0 0 0 0 0 0 0 0 0 0 0 0 0 0 0 0 0.03 0"/>
<feBlend mode="normal" in2="BackgroundImageFix" result="effect1_dropShadow_1208_1896"/>
<feBlend mode="normal" in="SourceGraphic" in2="effect1_dropShadow_1208_1896" result="shape"/>
</filter>
<filter id="filter7_d_1208_1896" x="817.494" y="260.5" width="283.012" height="48.5116" filterUnits="userSpaceOnUse" color-interpolation-filters="sRGB">
<feFlood flood-opacity="0" result="BackgroundImageFix"/>
<feColorMatrix in="SourceAlpha" type="matrix" values="0 0 0 0 0 0 0 0 0 0 0 0 0 0 0 0 0 0 127 0" result="hardAlpha"/>
<feOffset dy="2.75581"/>
<feGaussianBlur stdDeviation="1.37791"/>
<feComposite in2="hardAlpha" operator="out"/>
<feColorMatrix type="matrix" values="0 0 0 0 0 0 0 0 0 0 0 0 0 0 0 0 0 0 0.03 0"/>
<feBlend mode="normal" in2="BackgroundImageFix" result="effect1_dropShadow_1208_1896"/>
<feBlend mode="normal" in="SourceGraphic" in2="effect1_dropShadow_1208_1896" result="shape"/>
</filter>
<filter id="filter8_d_1208_1896" x="817.494" y="302.5" width="283.012" height="48.5116" filterUnits="userSpaceOnUse" color-interpolation-filters="sRGB">
<feFlood flood-opacity="0" result="BackgroundImageFix"/>
<feColorMatrix in="SourceAlpha" type="matrix" values="0 0 0 0 0 0 0 0 0 0 0 0 0 0 0 0 0 0 127 0" result="hardAlpha"/>
<feOffset dy="2.75581"/>
<feGaussianBlur stdDeviation="1.37791"/>
<feComposite in2="hardAlpha" operator="out"/>
<feColorMatrix type="matrix" values="0 0 0 0 0 0 0 0 0 0 0 0 0 0 0 0 0 0 0.03 0"/>
<feBlend mode="normal" in2="BackgroundImageFix" result="effect1_dropShadow_1208_1896"/>
<feBlend mode="normal" in="SourceGraphic" in2="effect1_dropShadow_1208_1896" result="shape"/>
</filter>
<filter id="filter9_d_1208_1896" x="1142.99" y="218.5" width="275.512" height="48.5116" filterUnits="userSpaceOnUse" color-interpolation-filters="sRGB">
<feFlood flood-opacity="0" result="BackgroundImageFix"/>
<feColorMatrix in="SourceAlpha" type="matrix" values="0 0 0 0 0 0 0 0 0 0 0 0 0 0 0 0 0 0 127 0" result="hardAlpha"/>
<feOffset dy="2.75581"/>
<feGaussianBlur stdDeviation="1.37791"/>
<feComposite in2="hardAlpha" operator="out"/>
<feColorMatrix type="matrix" values="0 0 0 0 0 0 0 0 0 0 0 0 0 0 0 0 0 0 0.03 0"/>
<feBlend mode="normal" in2="BackgroundImageFix" result="effect1_dropShadow_1208_1896"/>
<feBlend mode="normal" in="SourceGraphic" in2="effect1_dropShadow_1208_1896" result="shape"/>
</filter>
<filter id="filter10_d_1208_1896" x="1142.99" y="260.5" width="275.512" height="48.5116" filterUnits="userSpaceOnUse" color-interpolation-filters="sRGB">
<feFlood flood-opacity="0" result="BackgroundImageFix"/>
<feColorMatrix in="SourceAlpha" type="matrix" values="0 0 0 0 0 0 0 0 0 0 0 0 0 0 0 0 0 0 127 0" result="hardAlpha"/>
<feOffset dy="2.75581"/>
<feGaussianBlur stdDeviation="1.37791"/>
<feComposite in2="hardAlpha" operator="out"/>
<feColorMatrix type="matrix" values="0 0 0 0 0 0 0 0 0 0 0 0 0 0 0 0 0 0 0.03 0"/>
<feBlend mode="normal" in2="BackgroundImageFix" result="effect1_dropShadow_1208_1896"/>
<feBlend mode="normal" in="SourceGraphic" in2="effect1_dropShadow_1208_1896" result="shape"/>
</filter>
<filter id="filter11_d_1208_1896" x="1142.99" y="302.5" width="275.512" height="48.5116" filterUnits="userSpaceOnUse" color-interpolation-filters="sRGB">
<feFlood flood-opacity="0" result="BackgroundImageFix"/>
<feColorMatrix in="SourceAlpha" type="matrix" values="0 0 0 0 0 0 0 0 0 0 0 0 0 0 0 0 0 0 127 0" result="hardAlpha"/>
<feOffset dy="2.75581"/>
<feGaussianBlur stdDeviation="1.37791"/>
<feComposite in2="hardAlpha" operator="out"/>
<feColorMatrix type="matrix" values="0 0 0 0 0 0 0 0 0 0 0 0 0 0 0 0 0 0 0.03 0"/>
<feBlend mode="normal" in2="BackgroundImageFix" result="effect1_dropShadow_1208_1896"/>
<feBlend mode="normal" in="SourceGraphic" in2="effect1_dropShadow_1208_1896" result="shape"/>
</filter>
</defs>
</svg>
